G04 Layer_Color=128*
%FSTAX24Y24*%
%MOIN*%
G70*
G01*
G75*
%ADD43C,0.0020*%
D43*
X020133Y02297D02*
X020487D01*
X02031Y022793D02*
Y023147D01*
X021133Y02297D02*
X021487D01*
X02131Y022793D02*
Y023147D01*
X022133Y02297D02*
X022487D01*
X02231Y022793D02*
Y023147D01*
X023133Y02297D02*
X023487D01*
X02331Y022793D02*
Y023147D01*
X024133Y02297D02*
X024487D01*
X02431Y022793D02*
Y023147D01*
X025133Y02297D02*
X025487D01*
X02531Y022793D02*
Y023147D01*
X032203Y023706D02*
X032557D01*
X03238Y023529D02*
Y023883D01*
X032203Y024706D02*
X032557D01*
X03238Y024529D02*
Y024883D01*
X032203Y025706D02*
X032557D01*
X03238Y025529D02*
Y025883D01*
X032203Y026706D02*
X032557D01*
X03238Y026529D02*
Y026883D01*
X032203Y027706D02*
X032557D01*
X03238Y027529D02*
Y027883D01*
X032203Y028706D02*
X032557D01*
X03238Y028529D02*
Y028883D01*
X032203Y029706D02*
X032557D01*
X03238Y029529D02*
Y029883D01*
X032203Y030706D02*
X032557D01*
X03238Y030529D02*
Y030883D01*
X032203Y031706D02*
X032557D01*
X03238Y031529D02*
Y031883D01*
X032203Y032706D02*
X032557D01*
X03238Y032529D02*
Y032883D01*
X032203Y033706D02*
X032557D01*
X03238Y033529D02*
Y033883D01*
X032203Y034706D02*
X032557D01*
X03238Y034529D02*
Y034883D01*
X018203Y023706D02*
X018557D01*
X01838Y023529D02*
Y023883D01*
X018203Y024706D02*
X018557D01*
X01838Y024529D02*
Y024883D01*
X018203Y025706D02*
X018557D01*
X01838Y025529D02*
Y025883D01*
X018203Y026706D02*
X018557D01*
X01838Y026529D02*
Y026883D01*
X018203Y027706D02*
X018557D01*
X01838Y027529D02*
Y027883D01*
X018203Y028706D02*
X018557D01*
X01838Y028529D02*
Y028883D01*
X018203Y029706D02*
X018557D01*
X01838Y029529D02*
Y029883D01*
X018203Y030706D02*
X018557D01*
X01838Y030529D02*
Y030883D01*
X018203Y031706D02*
X018557D01*
X01838Y031529D02*
Y031883D01*
X018203Y032706D02*
X018557D01*
X01838Y032529D02*
Y032883D01*
X018203Y033706D02*
X018557D01*
X01838Y033529D02*
Y033883D01*
X018203Y034706D02*
X018557D01*
X01838Y034529D02*
Y034883D01*
X029743Y02297D02*
X030097D01*
X02992Y022793D02*
Y023147D01*
X028743Y02297D02*
X029097D01*
X02892Y022793D02*
Y023147D01*
X027743Y02297D02*
X028097D01*
X02792Y022793D02*
Y023147D01*
X026743Y02297D02*
X027097D01*
X02692Y022793D02*
Y023147D01*
X033012Y041732D02*
X03313D01*
X033071Y041673D02*
Y041791D01*
X033012Y040945D02*
X03313D01*
X033071Y040886D02*
Y041004D01*
X033012Y040157D02*
X03313D01*
X033071Y040098D02*
Y040217D01*
X033012Y03937D02*
X03313D01*
X033071Y039311D02*
Y039429D01*
X033012Y038583D02*
X03313D01*
X033071Y038524D02*
Y038642D01*
X033012Y037795D02*
X03313D01*
X033071Y037736D02*
Y037854D01*
X033012Y037008D02*
X03313D01*
X033071Y036949D02*
Y037067D01*
X033012Y03622D02*
X03313D01*
X033071Y036161D02*
Y03628D01*
X033012Y035433D02*
X03313D01*
X033071Y035374D02*
Y035492D01*
X033012Y034646D02*
X03313D01*
X033071Y034587D02*
Y034705D01*
X033012Y033858D02*
X03313D01*
X033071Y033799D02*
Y033917D01*
X032224Y041732D02*
X032343D01*
X032283Y041673D02*
Y041791D01*
X032224Y040945D02*
X032343D01*
X032283Y040886D02*
Y041004D01*
X032224Y040157D02*
X032343D01*
X032283Y040098D02*
Y040217D01*
X032224Y03937D02*
X032343D01*
X032283Y039311D02*
Y039429D01*
X032224Y038583D02*
X032343D01*
X032283Y038524D02*
Y038642D01*
X032224Y037795D02*
X032343D01*
X032283Y037736D02*
Y037854D01*
X032224Y037008D02*
X032343D01*
X032283Y036949D02*
Y037067D01*
X032224Y03622D02*
X032343D01*
X032283Y036161D02*
Y03628D01*
X032224Y035433D02*
X032343D01*
X032283Y035374D02*
Y035492D01*
X031437Y041732D02*
X031555D01*
X031496Y041673D02*
Y041791D01*
X031437Y040945D02*
X031555D01*
X031496Y040886D02*
Y041004D01*
X031437Y040157D02*
X031555D01*
X031496Y040098D02*
Y040217D01*
X031437Y03937D02*
X031555D01*
X031496Y039311D02*
Y039429D01*
X031437Y038583D02*
X031555D01*
X031496Y038524D02*
Y038642D01*
X031437Y037795D02*
X031555D01*
X031496Y037736D02*
Y037854D01*
X031437Y037008D02*
X031555D01*
X031496Y036949D02*
Y037067D01*
X031437Y03622D02*
X031555D01*
X031496Y036161D02*
Y03628D01*
X031437Y035433D02*
X031555D01*
X031496Y035374D02*
Y035492D01*
X03065Y041732D02*
X030768D01*
X030709Y041673D02*
Y041791D01*
X03065Y040945D02*
X030768D01*
X030709Y040886D02*
Y041004D01*
X03065Y040157D02*
X030768D01*
X030709Y040098D02*
Y040217D01*
X03065Y03937D02*
X030768D01*
X030709Y039311D02*
Y039429D01*
X03065Y038583D02*
X030768D01*
X030709Y038524D02*
Y038642D01*
X03065Y037795D02*
X030768D01*
X030709Y037736D02*
Y037854D01*
X03065Y037008D02*
X030768D01*
X030709Y036949D02*
Y037067D01*
X03065Y03622D02*
X030768D01*
X030709Y036161D02*
Y03628D01*
X03065Y035433D02*
X030768D01*
X030709Y035374D02*
Y035492D01*
X029862Y041732D02*
X02998D01*
X029921Y041673D02*
Y041791D01*
X029862Y040945D02*
X02998D01*
X029921Y040886D02*
Y041004D01*
X029862Y03937D02*
X02998D01*
X029921Y039311D02*
Y039429D01*
X029862Y038583D02*
X02998D01*
X029921Y038524D02*
Y038642D01*
X029862Y037795D02*
X02998D01*
X029921Y037736D02*
Y037854D01*
X029862Y037008D02*
X02998D01*
X029921Y036949D02*
Y037067D01*
X029862Y03622D02*
X02998D01*
X029921Y036161D02*
Y03628D01*
X029862Y035433D02*
X02998D01*
X029921Y035374D02*
Y035492D01*
X029862Y034646D02*
X02998D01*
X029921Y034587D02*
Y034705D01*
X029862Y033858D02*
X02998D01*
X029921Y033799D02*
Y033917D01*
X029075Y041732D02*
X029193D01*
X029134Y041673D02*
Y041791D01*
X029075Y040945D02*
X029193D01*
X029134Y040886D02*
Y041004D01*
X029075Y03937D02*
X029193D01*
X029134Y039311D02*
Y039429D01*
X029075Y038583D02*
X029193D01*
X029134Y038524D02*
Y038642D01*
X029075Y037795D02*
X029193D01*
X029134Y037736D02*
Y037854D01*
X029075Y03622D02*
X029193D01*
X029134Y036161D02*
Y03628D01*
X029075Y035433D02*
X029193D01*
X029134Y035374D02*
Y035492D01*
X028287Y041732D02*
X028406D01*
X028346Y041673D02*
Y041791D01*
X028287Y040945D02*
X028406D01*
X028346Y040886D02*
Y041004D01*
X028287Y040157D02*
X028406D01*
X028346Y040098D02*
Y040217D01*
X028287Y03937D02*
X028406D01*
X028346Y039311D02*
Y039429D01*
X028287Y038583D02*
X028406D01*
X028346Y038524D02*
Y038642D01*
X028287Y037795D02*
X028406D01*
X028346Y037736D02*
Y037854D01*
X028287Y03622D02*
X028406D01*
X028346Y036161D02*
Y03628D01*
X028287Y035433D02*
X028406D01*
X028346Y035374D02*
Y035492D01*
X028287Y034646D02*
X028406D01*
X028346Y034587D02*
Y034705D01*
X028287Y033858D02*
X028406D01*
X028346Y033799D02*
Y033917D01*
X0275Y041732D02*
X027618D01*
X027559Y041673D02*
Y041791D01*
X0275Y040945D02*
X027618D01*
X027559Y040886D02*
Y041004D01*
X0275Y040157D02*
X027618D01*
X027559Y040098D02*
Y040217D01*
X0275Y03937D02*
X027618D01*
X027559Y039311D02*
Y039429D01*
X0275Y038583D02*
X027618D01*
X027559Y038524D02*
Y038642D01*
X0275Y037795D02*
X027618D01*
X027559Y037736D02*
Y037854D01*
X0275Y03622D02*
X027618D01*
X027559Y036161D02*
Y03628D01*
X0275Y035433D02*
X027618D01*
X027559Y035374D02*
Y035492D01*
X0275Y034646D02*
X027618D01*
X027559Y034587D02*
Y034705D01*
X0275Y033858D02*
X027618D01*
X027559Y033799D02*
Y033917D01*
X026713Y041732D02*
X026831D01*
X026772Y041673D02*
Y041791D01*
X026713Y040945D02*
X026831D01*
X026772Y040886D02*
Y041004D01*
X026713Y040157D02*
X026831D01*
X026772Y040098D02*
Y040217D01*
X026713Y03937D02*
X026831D01*
X026772Y039311D02*
Y039429D01*
X026713Y038583D02*
X026831D01*
X026772Y038524D02*
Y038642D01*
X026713Y037795D02*
X026831D01*
X026772Y037736D02*
Y037854D01*
X026713Y03622D02*
X026831D01*
X026772Y036161D02*
Y03628D01*
X026713Y034646D02*
X026831D01*
X026772Y034587D02*
Y034705D01*
X026713Y033858D02*
X026831D01*
X026772Y033799D02*
Y033917D01*
X025925Y041732D02*
X026043D01*
X025984Y041673D02*
Y041791D01*
X025925Y040945D02*
X026043D01*
X025984Y040886D02*
Y041004D01*
X025925Y040157D02*
X026043D01*
X025984Y040098D02*
Y040217D01*
X025925Y03937D02*
X026043D01*
X025984Y039311D02*
Y039429D01*
X025925Y038583D02*
X026043D01*
X025984Y038524D02*
Y038642D01*
X025925Y037795D02*
X026043D01*
X025984Y037736D02*
Y037854D01*
X025925Y037008D02*
X026043D01*
X025984Y036949D02*
Y037067D01*
X025925Y034646D02*
X026043D01*
X025984Y034587D02*
Y034705D01*
X025925Y033858D02*
X026043D01*
X025984Y033799D02*
Y033917D01*
X025138Y041732D02*
X025256D01*
X025197Y041673D02*
Y041791D01*
X025138Y040945D02*
X025256D01*
X025197Y040886D02*
Y041004D01*
X025138Y040157D02*
X025256D01*
X025197Y040098D02*
Y040217D01*
X025138Y03937D02*
X025256D01*
X025197Y039311D02*
Y039429D01*
X025138Y038583D02*
X025256D01*
X025197Y038524D02*
Y038642D01*
X025138Y037795D02*
X025256D01*
X025197Y037736D02*
Y037854D01*
X025138Y037008D02*
X025256D01*
X025197Y036949D02*
Y037067D01*
X025138Y03622D02*
X025256D01*
X025197Y036161D02*
Y03628D01*
X025138Y034646D02*
X025256D01*
X025197Y034587D02*
Y034705D01*
X025138Y033858D02*
X025256D01*
X025197Y033799D02*
Y033917D01*
X02435Y041732D02*
X024469D01*
X024409Y041673D02*
Y041791D01*
X02435Y040945D02*
X024469D01*
X024409Y040886D02*
Y041004D01*
X02435Y040157D02*
X024469D01*
X024409Y040098D02*
Y040217D01*
X02435Y03937D02*
X024469D01*
X024409Y039311D02*
Y039429D01*
X02435Y038583D02*
X024469D01*
X024409Y038524D02*
Y038642D01*
X02435Y037795D02*
X024469D01*
X024409Y037736D02*
Y037854D01*
X02435Y037008D02*
X024469D01*
X024409Y036949D02*
Y037067D01*
X02435Y03622D02*
X024469D01*
X024409Y036161D02*
Y03628D01*
X02435Y034646D02*
X024469D01*
X024409Y034587D02*
Y034705D01*
X02435Y033858D02*
X024469D01*
X024409Y033799D02*
Y033917D01*
X023563Y041732D02*
X023681D01*
X023622Y041673D02*
Y041791D01*
X023563Y040945D02*
X023681D01*
X023622Y040886D02*
Y041004D01*
X023563Y040157D02*
X023681D01*
X023622Y040098D02*
Y040217D01*
X023563Y03937D02*
X023681D01*
X023622Y039311D02*
Y039429D01*
X023563Y038583D02*
X023681D01*
X023622Y038524D02*
Y038642D01*
X023563Y037795D02*
X023681D01*
X023622Y037736D02*
Y037854D01*
X023563Y037008D02*
X023681D01*
X023622Y036949D02*
Y037067D01*
X023563Y03622D02*
X023681D01*
X023622Y036161D02*
Y03628D01*
X023563Y035433D02*
X023681D01*
X023622Y035374D02*
Y035492D01*
X023563Y034646D02*
X023681D01*
X023622Y034587D02*
Y034705D01*
X023563Y033858D02*
X023681D01*
X023622Y033799D02*
Y033917D01*
X022776Y041732D02*
X022894D01*
X022835Y041673D02*
Y041791D01*
X022776Y040945D02*
X022894D01*
X022835Y040886D02*
Y041004D01*
X022776Y040157D02*
X022894D01*
X022835Y040098D02*
Y040217D01*
X022776Y03937D02*
X022894D01*
X022835Y039311D02*
Y039429D01*
X022776Y038583D02*
X022894D01*
X022835Y038524D02*
Y038642D01*
X022776Y037795D02*
X022894D01*
X022835Y037736D02*
Y037854D01*
X022776Y037008D02*
X022894D01*
X022835Y036949D02*
Y037067D01*
X022776Y03622D02*
X022894D01*
X022835Y036161D02*
Y03628D01*
X022776Y035433D02*
X022894D01*
X022835Y035374D02*
Y035492D01*
X022776Y034646D02*
X022894D01*
X022835Y034587D02*
Y034705D01*
X021988Y041732D02*
X022106D01*
X022047Y041673D02*
Y041791D01*
X021988Y040945D02*
X022106D01*
X022047Y040886D02*
Y041004D01*
X021988Y040157D02*
X022106D01*
X022047Y040098D02*
Y040217D01*
X021988Y03937D02*
X022106D01*
X022047Y039311D02*
Y039429D01*
X021988Y038583D02*
X022106D01*
X022047Y038524D02*
Y038642D01*
X021988Y037795D02*
X022106D01*
X022047Y037736D02*
Y037854D01*
X021988Y037008D02*
X022106D01*
X022047Y036949D02*
Y037067D01*
X021988Y03622D02*
X022106D01*
X022047Y036161D02*
Y03628D01*
X021988Y035433D02*
X022106D01*
X022047Y035374D02*
Y035492D01*
X021201Y041732D02*
X021319D01*
X02126Y041673D02*
Y041791D01*
X021201Y040945D02*
X021319D01*
X02126Y040886D02*
Y041004D01*
X021201Y040157D02*
X021319D01*
X02126Y040098D02*
Y040217D01*
X021201Y03937D02*
X021319D01*
X02126Y039311D02*
Y039429D01*
X021201Y038583D02*
X021319D01*
X02126Y038524D02*
Y038642D01*
X021201Y037795D02*
X021319D01*
X02126Y037736D02*
Y037854D01*
X021201Y037008D02*
X021319D01*
X02126Y036949D02*
Y037067D01*
X021201Y03622D02*
X021319D01*
X02126Y036161D02*
Y03628D01*
X020413Y041732D02*
X020532D01*
X020472Y041673D02*
Y041791D01*
X020413Y040945D02*
X020532D01*
X020472Y040886D02*
Y041004D01*
X020413Y040157D02*
X020532D01*
X020472Y040098D02*
Y040217D01*
X020413Y03937D02*
X020532D01*
X020472Y039311D02*
Y039429D01*
X020413Y038583D02*
X020532D01*
X020472Y038524D02*
Y038642D01*
X020413Y037795D02*
X020532D01*
X020472Y037736D02*
Y037854D01*
X020413Y037008D02*
X020532D01*
X020472Y036949D02*
Y037067D01*
X020413Y03622D02*
X020532D01*
X020472Y036161D02*
Y03628D01*
X020413Y035433D02*
X020532D01*
X020472Y035374D02*
Y035492D01*
X020413Y033858D02*
X020532D01*
X020472Y033799D02*
Y033917D01*
X019626Y041732D02*
X019744D01*
X019685Y041673D02*
Y041791D01*
X019626Y040945D02*
X019744D01*
X019685Y040886D02*
Y041004D01*
X019626Y040157D02*
X019744D01*
X019685Y040098D02*
Y040217D01*
X019626Y03937D02*
X019744D01*
X019685Y039311D02*
Y039429D01*
X019626Y038583D02*
X019744D01*
X019685Y038524D02*
Y038642D01*
X019626Y037795D02*
X019744D01*
X019685Y037736D02*
Y037854D01*
X019626Y037008D02*
X019744D01*
X019685Y036949D02*
Y037067D01*
X019626Y03622D02*
X019744D01*
X019685Y036161D02*
Y03628D01*
X019626Y035433D02*
X019744D01*
X019685Y035374D02*
Y035492D01*
X019626Y033858D02*
X019744D01*
X019685Y033799D02*
Y033917D01*
X018839Y041732D02*
X018957D01*
X018898Y041673D02*
Y041791D01*
X018839Y040945D02*
X018957D01*
X018898Y040886D02*
Y041004D01*
X018839Y040157D02*
X018957D01*
X018898Y040098D02*
Y040217D01*
X018839Y03937D02*
X018957D01*
X018898Y039311D02*
Y039429D01*
X018839Y038583D02*
X018957D01*
X018898Y038524D02*
Y038642D01*
X018839Y037795D02*
X018957D01*
X018898Y037736D02*
Y037854D01*
X018839Y037008D02*
X018957D01*
X018898Y036949D02*
Y037067D01*
X018839Y03622D02*
X018957D01*
X018898Y036161D02*
Y03628D01*
X018839Y035433D02*
X018957D01*
X018898Y035374D02*
Y035492D01*
X018051Y041732D02*
X018169D01*
X01811Y041673D02*
Y041791D01*
X018051Y040945D02*
X018169D01*
X01811Y040886D02*
Y041004D01*
X018051Y040157D02*
X018169D01*
X01811Y040098D02*
Y040217D01*
X018051Y03937D02*
X018169D01*
X01811Y039311D02*
Y039429D01*
X018051Y038583D02*
X018169D01*
X01811Y038524D02*
Y038642D01*
X018051Y037795D02*
X018169D01*
X01811Y037736D02*
Y037854D01*
X018051Y037008D02*
X018169D01*
X01811Y036949D02*
Y037067D01*
X018051Y03622D02*
X018169D01*
X01811Y036161D02*
Y03628D01*
X018051Y035433D02*
X018169D01*
X01811Y035374D02*
Y035492D01*
X017264Y041732D02*
X017382D01*
X017323Y041673D02*
Y041791D01*
X017264Y040945D02*
X017382D01*
X017323Y040886D02*
Y041004D01*
X017264Y040157D02*
X017382D01*
X017323Y040098D02*
Y040217D01*
X017264Y03937D02*
X017382D01*
X017323Y039311D02*
Y039429D01*
X017264Y038583D02*
X017382D01*
X017323Y038524D02*
Y038642D01*
X017264Y037795D02*
X017382D01*
X017323Y037736D02*
Y037854D01*
X017264Y037008D02*
X017382D01*
X017323Y036949D02*
Y037067D01*
X017264Y03622D02*
X017382D01*
X017323Y036161D02*
Y03628D01*
X017264Y035433D02*
X017382D01*
X017323Y035374D02*
Y035492D01*
X017264Y034646D02*
X017382D01*
X017323Y034587D02*
Y034705D01*
X017264Y033858D02*
X017382D01*
X017323Y033799D02*
Y033917D01*
X03041Y03191D02*
X03069D01*
X03055Y03177D02*
Y03205D01*
X02022Y03301D02*
X0205D01*
X02036Y03287D02*
Y03315D01*
M02*
