M48
;Layer_Color=9474304
;FILE_FORMAT=2:4
INCH,LZ
;TYPE=PLATED
T1F00S00C0.0118
T2F00S00C0.0280
T3F00S00C0.0354
%
T01
X017323Y033858
Y034646
Y035433
X01811
X018898
X019685
X020472
Y03622
X02126
X022047
X022835
X023622
X024409
X025197
Y037008
X025984
Y037795
X026772
X027559
X028346
X029134
X029921
X030709
Y038583
Y03937
Y040157
Y040945
Y041732
X029921
Y040945
X029134
Y041732
X028346
Y040945
Y040157
Y03937
X029134
X029921
Y038583
X029134
X028346
X027559
Y03937
Y040157
Y040945
Y041732
X026772
Y040945
Y040157
Y03937
Y038583
X025984
Y03937
Y040157
Y040945
Y041732
X025197
Y040945
Y040157
Y03937
Y038583
Y037795
X024409
Y038583
Y03937
Y040157
Y040945
Y041732
X023622
Y040945
Y040157
Y03937
Y038583
Y037795
Y037008
X024409
X022835
Y037795
Y038583
Y03937
Y040157
Y040945
Y041732
X022047
Y040945
Y040157
Y03937
Y038583
Y037795
Y037008
X02126
Y037795
Y038583
Y03937
Y040157
Y040945
Y041732
X020472
Y040945
Y040157
Y03937
Y038583
Y037795
Y037008
X019685
Y037795
Y038583
Y03937
Y040157
Y040945
Y041732
X018898
Y040945
Y040157
Y03937
Y038583
Y037795
Y037008
Y03622
X019685
X01811
Y037008
Y037795
Y038583
Y03937
Y040157
Y040945
Y041732
X017323
Y040945
Y040157
Y03937
Y038583
Y037795
Y037008
Y03622
X019685Y033858
X020472
X023622
X024409
X025197
X025984
X026772
X027559
X028346
Y034646
Y035433
X029134
X029921
X030709
Y03622
Y037008
X029921
Y03622
X029134
X028346
X027559
Y035433
Y034646
X026772
X025984
X025197
X024409
X023622
Y035433
X022835
Y034646
X022047Y035433
X026772Y03622
X029921Y034646
Y033858
X033071
Y034646
Y035433
Y03622
Y037008
Y037795
Y038583
Y03937
Y040157
Y040945
Y041732
X032283
Y040945
Y040157
Y03937
Y038583
Y037795
Y037008
Y03622
Y035433
X031496
Y03622
Y037008
Y037795
Y038583
Y03937
Y040157
Y040945
Y041732
T02
X02036Y03301
X03055Y03191
T03
X03238Y023706
Y024706
Y025706
Y026706
Y027706
Y028706
Y029706
Y030706
X02992Y02297
X02892
X02792
X02692
X02531
X02431
X02331
X02231
X02131
X02031
X01838Y023706
Y024706
Y025706
Y026706
Y027706
Y028706
Y029706
Y030706
Y031706
Y032706
Y033706
Y034706
X03238
Y033706
Y032706
Y031706
M30
