G04 Layer_Physical_Order=2*
G04 Layer_Color=16711680*
%FSTAX24Y24*%
%MOIN*%
G70*
G01*
G75*
%ADD10C,0.0295*%
%ADD18C,0.0218*%
%ADD19C,0.0591*%
%ADD20R,0.0591X0.0591*%
%ADD21R,0.0591X0.0591*%
%ADD22C,0.0197*%
%ADD23C,0.0500*%
G36*
X033609Y019734D02*
X017141D01*
Y042461D01*
X033609D01*
Y019734D01*
D02*
G37*
%LPC*%
G36*
X022399Y023316D02*
Y023059D01*
X022656D01*
X022655Y023063D01*
X02262Y023149D01*
X022563Y023223D01*
X022489Y02328D01*
X022403Y023315D01*
X022399Y023316D01*
D02*
G37*
G36*
X030215Y023329D02*
X030009D01*
Y023059D01*
X030279D01*
Y023265D01*
X03026Y02331D01*
X030215Y023329D01*
D02*
G37*
G36*
X022221Y023316D02*
X022218Y023315D01*
X022131Y02328D01*
X022057Y023223D01*
X022Y023149D01*
X021965Y023063D01*
X021964Y023059D01*
X022221D01*
Y023316D01*
D02*
G37*
G36*
X022656Y022881D02*
X022399D01*
Y022624D01*
X022403Y022625D01*
X022489Y02266D01*
X022563Y022717D01*
X02262Y022791D01*
X022655Y022878D01*
X022656Y022881D01*
D02*
G37*
G36*
X029831Y023329D02*
X029625D01*
X02958Y02331D01*
X029561Y023265D01*
Y023059D01*
X029831D01*
Y023329D01*
D02*
G37*
G36*
X018291Y023617D02*
X018021D01*
Y023411D01*
X01804Y023366D01*
X018085Y023347D01*
X018291D01*
Y023617D01*
D02*
G37*
G36*
Y024065D02*
X018085D01*
X01804Y024047D01*
X018021Y024001D01*
Y023796D01*
X018291D01*
Y024065D01*
D02*
G37*
G36*
X032291D02*
X032085D01*
X03204Y024047D01*
X032021Y024001D01*
Y023796D01*
X032291D01*
Y024065D01*
D02*
G37*
G36*
X032739Y023617D02*
X032469D01*
Y023347D01*
X032675D01*
X03272Y023366D01*
X032739Y023411D01*
Y023617D01*
D02*
G37*
G36*
X018739D02*
X018469D01*
Y023347D01*
X018675D01*
X01872Y023366D01*
X018739Y023411D01*
Y023617D01*
D02*
G37*
G36*
X032291D02*
X032021D01*
Y023411D01*
X03204Y023366D01*
X032085Y023347D01*
X032291D01*
Y023617D01*
D02*
G37*
G36*
X02036Y033322D02*
X020279Y033311D01*
X020204Y03328D01*
X02014Y03323D01*
X02009Y033166D01*
X020059Y033091D01*
X020048Y03301D01*
X020059Y032929D01*
X02009Y032854D01*
X02014Y03279D01*
X020189Y032752D01*
Y023303D01*
X020131Y02328D01*
X020057Y023223D01*
X02Y023149D01*
X019965Y023063D01*
X019953Y02297D01*
X019965Y022878D01*
X02Y022791D01*
X020057Y022717D01*
X020131Y02266D01*
X020217Y022625D01*
X02031Y022613D01*
X020403Y022625D01*
X020489Y02266D01*
X020563Y022717D01*
X02062Y022791D01*
X020655Y022878D01*
X020667Y02297D01*
X020655Y023063D01*
X02062Y023149D01*
X020563Y023223D01*
X020531Y023247D01*
Y032752D01*
X02058Y03279D01*
X02063Y032854D01*
X020661Y032929D01*
X020672Y03301D01*
X020661Y033091D01*
X02063Y033166D01*
X02058Y03323D01*
X020516Y03328D01*
X020441Y033311D01*
X02036Y033322D01*
D02*
G37*
G36*
X02131Y023331D02*
X02125Y02332D01*
X021218Y023315D01*
X021131Y02328D01*
X021057Y023223D01*
X021Y023149D01*
X020965Y023063D01*
X020953Y02297D01*
X020965Y022878D01*
X021Y022791D01*
X021057Y022717D01*
X021131Y02266D01*
X021218Y022625D01*
X02131Y022613D01*
X021402Y022625D01*
X021489Y02266D01*
X021563Y022717D01*
X02162Y022791D01*
X021655Y022878D01*
X021667Y02297D01*
X021655Y023063D01*
X02162Y023149D01*
X021563Y023223D01*
X021489Y02328D01*
X021402Y023315D01*
X02137Y02332D01*
X02131Y023331D01*
D02*
G37*
G36*
X030279Y022881D02*
X030009D01*
Y022611D01*
X030215D01*
X03026Y02263D01*
X030279Y022675D01*
Y022881D01*
D02*
G37*
G36*
X025605Y023329D02*
X025015D01*
X02497Y02331D01*
X024951Y023265D01*
Y022675D01*
X02497Y02263D01*
X025015Y022611D01*
X025605D01*
X02565Y02263D01*
X025669Y022675D01*
Y023265D01*
X02565Y02331D01*
X025605Y023329D01*
D02*
G37*
G36*
X029831Y022881D02*
X029561D01*
Y022675D01*
X02958Y02263D01*
X029625Y022611D01*
X029831D01*
Y022881D01*
D02*
G37*
G36*
X02331Y023327D02*
X023217Y023315D01*
X023131Y02328D01*
X023057Y023223D01*
X023Y023149D01*
X022965Y023063D01*
X022953Y02297D01*
X022965Y022878D01*
X023Y022791D01*
X023057Y022717D01*
X023131Y02266D01*
X023217Y022625D01*
X02331Y022613D01*
X023403Y022625D01*
X023489Y02266D01*
X023563Y022717D01*
X02362Y022791D01*
X023655Y022878D01*
X023667Y02297D01*
X023655Y023063D01*
X02362Y023149D01*
X023563Y023223D01*
X023489Y02328D01*
X023403Y023315D01*
X02331Y023327D01*
D02*
G37*
G36*
X02892D02*
X028828Y023315D01*
X028741Y02328D01*
X028667Y023223D01*
X02861Y023149D01*
X028575Y023063D01*
X028563Y02297D01*
X028575Y022878D01*
X02861Y022791D01*
X028667Y022717D01*
X028741Y02266D01*
X028828Y022625D01*
X02892Y022613D01*
X029012Y022625D01*
X029099Y02266D01*
X029173Y022717D01*
X02923Y022791D01*
X029265Y022878D01*
X029277Y02297D01*
X029265Y023063D01*
X02923Y023149D01*
X029173Y023223D01*
X029099Y02328D01*
X029012Y023315D01*
X02892Y023327D01*
D02*
G37*
G36*
X022221Y022881D02*
X021964D01*
X021965Y022878D01*
X022Y022791D01*
X022057Y022717D01*
X022131Y02266D01*
X022218Y022625D01*
X022221Y022624D01*
Y022881D01*
D02*
G37*
G36*
X02792Y023327D02*
X027827Y023315D01*
X027741Y02328D01*
X027667Y023223D01*
X02761Y023149D01*
X027575Y023063D01*
X027563Y02297D01*
X027575Y022878D01*
X02761Y022791D01*
X027667Y022717D01*
X027741Y02266D01*
X027827Y022625D01*
X02792Y022613D01*
X028012Y022625D01*
X028099Y02266D01*
X028173Y022717D01*
X02823Y022791D01*
X028265Y022878D01*
X028277Y02297D01*
X028265Y023063D01*
X02823Y023149D01*
X028173Y023223D01*
X028099Y02328D01*
X028012Y023315D01*
X02792Y023327D01*
D02*
G37*
G36*
X02431D02*
X024218Y023315D01*
X024131Y02328D01*
X024057Y023223D01*
X024Y023149D01*
X023965Y023063D01*
X023953Y02297D01*
X023965Y022878D01*
X024Y022791D01*
X024057Y022717D01*
X024131Y02266D01*
X024218Y022625D01*
X02431Y022613D01*
X024402Y022625D01*
X024489Y02266D01*
X024563Y022717D01*
X02462Y022791D01*
X024655Y022878D01*
X024667Y02297D01*
X024655Y023063D01*
X02462Y023149D01*
X024563Y023223D01*
X024489Y02328D01*
X024402Y023315D01*
X02431Y023327D01*
D02*
G37*
G36*
X02692Y023331D02*
X02686Y02332D01*
X026827Y023315D01*
X026741Y02328D01*
X026667Y023223D01*
X02661Y023149D01*
X026575Y023063D01*
X026563Y02297D01*
X026575Y022878D01*
X02661Y022791D01*
X026667Y022717D01*
X026741Y02266D01*
X026827Y022625D01*
X02692Y022613D01*
X027013Y022625D01*
X027099Y02266D01*
X027173Y022717D01*
X02723Y022791D01*
X027265Y022878D01*
X027277Y02297D01*
X027265Y023063D01*
X02723Y023149D01*
X027173Y023223D01*
X027099Y02328D01*
X027013Y023315D01*
X02698Y02332D01*
X02692Y023331D01*
D02*
G37*
G36*
X03238Y031064D02*
X032287Y031051D01*
X032201Y031016D01*
X032127Y030959D01*
X03207Y030885D01*
X032035Y030799D01*
X032023Y030706D01*
X032035Y030614D01*
X03207Y030527D01*
X032127Y030453D01*
X032201Y030397D01*
X032287Y030361D01*
X03238Y030349D01*
X032473Y030361D01*
X032559Y030397D01*
X032633Y030453D01*
X03269Y030527D01*
X032725Y030614D01*
X032737Y030706D01*
X032725Y030799D01*
X03269Y030885D01*
X032633Y030959D01*
X032559Y031016D01*
X032473Y031051D01*
X03238Y031064D01*
D02*
G37*
G36*
X01838Y032064D02*
X018288Y032051D01*
X018201Y032016D01*
X018127Y031959D01*
X01807Y031885D01*
X018035Y031799D01*
X018023Y031706D01*
X018035Y031614D01*
X01807Y031527D01*
X018127Y031453D01*
X018201Y031397D01*
X018288Y031361D01*
X01838Y031349D01*
X018472Y031361D01*
X018559Y031397D01*
X018633Y031453D01*
X01869Y031527D01*
X018725Y031614D01*
X018737Y031706D01*
X018725Y031799D01*
X01869Y031885D01*
X018633Y031959D01*
X018559Y032016D01*
X018472Y032051D01*
X01838Y032064D01*
D02*
G37*
G36*
Y031064D02*
X018288Y031051D01*
X018201Y031016D01*
X018127Y030959D01*
X01807Y030885D01*
X018035Y030799D01*
X018023Y030706D01*
X018035Y030614D01*
X01807Y030527D01*
X018127Y030453D01*
X018201Y030397D01*
X018288Y030361D01*
X01838Y030349D01*
X018472Y030361D01*
X018559Y030397D01*
X018633Y030453D01*
X01869Y030527D01*
X018725Y030614D01*
X018737Y030706D01*
X018725Y030799D01*
X01869Y030885D01*
X018633Y030959D01*
X018559Y031016D01*
X018472Y031051D01*
X01838Y031064D01*
D02*
G37*
G36*
Y030064D02*
X018288Y030051D01*
X018201Y030016D01*
X018127Y029959D01*
X01807Y029885D01*
X018035Y029799D01*
X018023Y029706D01*
X018035Y029614D01*
X01807Y029527D01*
X018127Y029453D01*
X018201Y029397D01*
X018288Y029361D01*
X01838Y029349D01*
X018472Y029361D01*
X018559Y029397D01*
X018633Y029453D01*
X01869Y029527D01*
X018725Y029614D01*
X018737Y029706D01*
X018725Y029799D01*
X01869Y029885D01*
X018633Y029959D01*
X018559Y030016D01*
X018472Y030051D01*
X01838Y030064D01*
D02*
G37*
G36*
X03238D02*
X032287Y030051D01*
X032201Y030016D01*
X032127Y029959D01*
X03207Y029885D01*
X032035Y029799D01*
X032023Y029706D01*
X032035Y029614D01*
X03207Y029527D01*
X032127Y029453D01*
X032201Y029397D01*
X032287Y029361D01*
X03238Y029349D01*
X032473Y029361D01*
X032559Y029397D01*
X032633Y029453D01*
X03269Y029527D01*
X032725Y029614D01*
X032737Y029706D01*
X032725Y029799D01*
X03269Y029885D01*
X032633Y029959D01*
X032559Y030016D01*
X032473Y030051D01*
X03238Y030064D01*
D02*
G37*
G36*
Y032064D02*
X032287Y032051D01*
X032201Y032016D01*
X032127Y031959D01*
X03207Y031885D01*
X032035Y031799D01*
X032023Y031706D01*
X032035Y031614D01*
X03207Y031527D01*
X032127Y031453D01*
X032201Y031397D01*
X032287Y031361D01*
X03238Y031349D01*
X032473Y031361D01*
X032559Y031397D01*
X032633Y031453D01*
X03269Y031527D01*
X032725Y031614D01*
X032737Y031706D01*
X032725Y031799D01*
X03269Y031885D01*
X032633Y031959D01*
X032559Y032016D01*
X032473Y032051D01*
X03238Y032064D01*
D02*
G37*
G36*
X01838Y034064D02*
X018288Y034051D01*
X018201Y034016D01*
X018127Y033959D01*
X01807Y033885D01*
X018035Y033799D01*
X018023Y033706D01*
X018035Y033614D01*
X01807Y033527D01*
X018127Y033453D01*
X018201Y033397D01*
X018288Y033361D01*
X01838Y033349D01*
X018472Y033361D01*
X018559Y033397D01*
X018633Y033453D01*
X01869Y033527D01*
X018725Y033614D01*
X018737Y033706D01*
X018725Y033799D01*
X01869Y033885D01*
X018633Y033959D01*
X018559Y034016D01*
X018472Y034051D01*
X01838Y034064D01*
D02*
G37*
G36*
X03238D02*
X032287Y034051D01*
X032201Y034016D01*
X032127Y033959D01*
X03207Y033885D01*
X032035Y033799D01*
X032023Y033706D01*
X032035Y033614D01*
X03207Y033527D01*
X032127Y033453D01*
X032201Y033397D01*
X032287Y033361D01*
X03238Y033349D01*
X032473Y033361D01*
X032559Y033397D01*
X032633Y033453D01*
X03269Y033527D01*
X032725Y033614D01*
X032737Y033706D01*
X032725Y033799D01*
X03269Y033885D01*
X032633Y033959D01*
X032559Y034016D01*
X032473Y034051D01*
X03238Y034064D01*
D02*
G37*
G36*
Y033064D02*
X032287Y033051D01*
X032201Y033016D01*
X032127Y032959D01*
X03207Y032885D01*
X032035Y032799D01*
X032023Y032706D01*
X032035Y032614D01*
X03207Y032527D01*
X032127Y032453D01*
X032201Y032397D01*
X032287Y032361D01*
X03238Y032349D01*
X032473Y032361D01*
X032559Y032397D01*
X032633Y032453D01*
X03269Y032527D01*
X032725Y032614D01*
X032737Y032706D01*
X032725Y032799D01*
X03269Y032885D01*
X032633Y032959D01*
X032559Y033016D01*
X032473Y033051D01*
X03238Y033064D01*
D02*
G37*
G36*
Y035064D02*
X032287Y035051D01*
X032201Y035016D01*
X032127Y034959D01*
X032095Y034917D01*
X031086D01*
X031005Y034901D01*
X030937Y034855D01*
X030401Y034319D01*
X030355Y034251D01*
X030339Y03417D01*
Y032138D01*
X03033Y03213D01*
X030322Y032121D01*
X023727D01*
X020993Y034855D01*
X020925Y034901D01*
X020844Y034917D01*
X018665D01*
X018633Y034959D01*
X018559Y035016D01*
X018472Y035051D01*
X01838Y035064D01*
X018288Y035051D01*
X018201Y035016D01*
X018127Y034959D01*
X01807Y034885D01*
X018035Y034799D01*
X018023Y034706D01*
X018035Y034614D01*
X01807Y034527D01*
X018127Y034453D01*
X018201Y034397D01*
X018288Y034361D01*
X01838Y034349D01*
X018472Y034361D01*
X018559Y034397D01*
X018633Y034453D01*
X018665Y034495D01*
X020757D01*
X023491Y031761D01*
X023559Y031715D01*
X02364Y031699D01*
X030322D01*
X03033Y03169D01*
X030394Y03164D01*
X030469Y031609D01*
X03055Y031598D01*
X030631Y031609D01*
X030706Y03164D01*
X03077Y03169D01*
X03082Y031754D01*
X030851Y031829D01*
X030862Y03191D01*
X030851Y031991D01*
X03082Y032066D01*
X03077Y03213D01*
X030761Y032138D01*
Y034083D01*
X031173Y034495D01*
X032095D01*
X032127Y034453D01*
X032201Y034397D01*
X032287Y034361D01*
X03238Y034349D01*
X032473Y034361D01*
X032559Y034397D01*
X032633Y034453D01*
X03269Y034527D01*
X032725Y034614D01*
X032737Y034706D01*
X032725Y034799D01*
X03269Y034885D01*
X032633Y034959D01*
X032559Y035016D01*
X032473Y035051D01*
X03238Y035064D01*
D02*
G37*
G36*
X01838Y033064D02*
X018288Y033051D01*
X018201Y033016D01*
X018127Y032959D01*
X01807Y032885D01*
X018035Y032799D01*
X018023Y032706D01*
X018035Y032614D01*
X01807Y032527D01*
X018127Y032453D01*
X018201Y032397D01*
X018288Y032361D01*
X01838Y032349D01*
X018472Y032361D01*
X018559Y032397D01*
X018633Y032453D01*
X01869Y032527D01*
X018725Y032614D01*
X018737Y032706D01*
X018725Y032799D01*
X01869Y032885D01*
X018633Y032959D01*
X018559Y033016D01*
X018472Y033051D01*
X01838Y033064D01*
D02*
G37*
G36*
X03238Y029064D02*
X032287Y029051D01*
X032201Y029016D01*
X032127Y028959D01*
X03207Y028885D01*
X032035Y028799D01*
X032023Y028706D01*
X032035Y028614D01*
X03207Y028527D01*
X032127Y028453D01*
X032201Y028397D01*
X032287Y028361D01*
X03238Y028349D01*
X032473Y028361D01*
X032559Y028397D01*
X032633Y028453D01*
X03269Y028527D01*
X032725Y028614D01*
X032737Y028706D01*
X032725Y028799D01*
X03269Y028885D01*
X032633Y028959D01*
X032559Y029016D01*
X032473Y029051D01*
X03238Y029064D01*
D02*
G37*
G36*
Y025064D02*
X032287Y025051D01*
X032201Y025016D01*
X032127Y024959D01*
X03207Y024885D01*
X032035Y024799D01*
X032023Y024706D01*
X032035Y024614D01*
X03207Y024527D01*
X032127Y024453D01*
X032201Y024397D01*
X032287Y024361D01*
X03238Y024349D01*
X032473Y024361D01*
X032559Y024397D01*
X032633Y024453D01*
X03269Y024527D01*
X032725Y024614D01*
X032737Y024706D01*
X032725Y024799D01*
X03269Y024885D01*
X032633Y024959D01*
X032559Y025016D01*
X032473Y025051D01*
X03238Y025064D01*
D02*
G37*
G36*
X01838Y026064D02*
X018288Y026051D01*
X018201Y026016D01*
X018127Y025959D01*
X01807Y025885D01*
X018035Y025799D01*
X018023Y025706D01*
X018035Y025614D01*
X01807Y025527D01*
X018127Y025453D01*
X018201Y025397D01*
X018288Y025361D01*
X01838Y025349D01*
X018472Y025361D01*
X018559Y025397D01*
X018633Y025453D01*
X01869Y025527D01*
X018725Y025614D01*
X018737Y025706D01*
X018725Y025799D01*
X01869Y025885D01*
X018633Y025959D01*
X018559Y026016D01*
X018472Y026051D01*
X01838Y026064D01*
D02*
G37*
G36*
Y025064D02*
X018288Y025051D01*
X018201Y025016D01*
X018127Y024959D01*
X01807Y024885D01*
X018035Y024799D01*
X018023Y024706D01*
X018035Y024614D01*
X01807Y024527D01*
X018127Y024453D01*
X018201Y024397D01*
X018288Y024361D01*
X01838Y024349D01*
X018472Y024361D01*
X018559Y024397D01*
X018633Y024453D01*
X01869Y024527D01*
X018725Y024614D01*
X018737Y024706D01*
X018725Y024799D01*
X01869Y024885D01*
X018633Y024959D01*
X018559Y025016D01*
X018472Y025051D01*
X01838Y025064D01*
D02*
G37*
G36*
X018675Y024065D02*
X018469D01*
Y023796D01*
X018739D01*
Y024001D01*
X01872Y024047D01*
X018675Y024065D01*
D02*
G37*
G36*
X032675D02*
X032469D01*
Y023796D01*
X032739D01*
Y024001D01*
X03272Y024047D01*
X032675Y024065D01*
D02*
G37*
G36*
X03238Y026064D02*
X032287Y026051D01*
X032201Y026016D01*
X032127Y025959D01*
X03207Y025885D01*
X032035Y025799D01*
X032023Y025706D01*
X032035Y025614D01*
X03207Y025527D01*
X032127Y025453D01*
X032201Y025397D01*
X032287Y025361D01*
X03238Y025349D01*
X032473Y025361D01*
X032559Y025397D01*
X032633Y025453D01*
X03269Y025527D01*
X032725Y025614D01*
X032737Y025706D01*
X032725Y025799D01*
X03269Y025885D01*
X032633Y025959D01*
X032559Y026016D01*
X032473Y026051D01*
X03238Y026064D01*
D02*
G37*
G36*
Y028064D02*
X032287Y028051D01*
X032201Y028016D01*
X032127Y027959D01*
X03207Y027885D01*
X032035Y027799D01*
X032023Y027706D01*
X032035Y027614D01*
X03207Y027527D01*
X032127Y027453D01*
X032201Y027397D01*
X032287Y027361D01*
X03238Y027349D01*
X032473Y027361D01*
X032559Y027397D01*
X032633Y027453D01*
X03269Y027527D01*
X032725Y027614D01*
X032737Y027706D01*
X032725Y027799D01*
X03269Y027885D01*
X032633Y027959D01*
X032559Y028016D01*
X032473Y028051D01*
X03238Y028064D01*
D02*
G37*
G36*
X01838Y029064D02*
X018288Y029051D01*
X018201Y029016D01*
X018127Y028959D01*
X01807Y028885D01*
X018035Y028799D01*
X018023Y028706D01*
X018035Y028614D01*
X01807Y028527D01*
X018127Y028453D01*
X018201Y028397D01*
X018288Y028361D01*
X01838Y028349D01*
X018472Y028361D01*
X018559Y028397D01*
X018633Y028453D01*
X01869Y028527D01*
X018725Y028614D01*
X018737Y028706D01*
X018725Y028799D01*
X01869Y028885D01*
X018633Y028959D01*
X018559Y029016D01*
X018472Y029051D01*
X01838Y029064D01*
D02*
G37*
G36*
Y028064D02*
X018288Y028051D01*
X018201Y028016D01*
X018127Y027959D01*
X01807Y027885D01*
X018035Y027799D01*
X018023Y027706D01*
X018035Y027614D01*
X01807Y027527D01*
X018127Y027453D01*
X018201Y027397D01*
X018288Y027361D01*
X01838Y027349D01*
X018472Y027361D01*
X018559Y027397D01*
X018633Y027453D01*
X01869Y027527D01*
X018725Y027614D01*
X018737Y027706D01*
X018725Y027799D01*
X01869Y027885D01*
X018633Y027959D01*
X018559Y028016D01*
X018472Y028051D01*
X01838Y028064D01*
D02*
G37*
G36*
Y027064D02*
X018288Y027051D01*
X018201Y027016D01*
X018127Y026959D01*
X01807Y026885D01*
X018035Y026799D01*
X018023Y026706D01*
X018035Y026614D01*
X01807Y026527D01*
X018127Y026453D01*
X018201Y026397D01*
X018288Y026361D01*
X01838Y026349D01*
X018472Y026361D01*
X018559Y026397D01*
X018633Y026453D01*
X01869Y026527D01*
X018725Y026614D01*
X018737Y026706D01*
X018725Y026799D01*
X01869Y026885D01*
X018633Y026959D01*
X018559Y027016D01*
X018472Y027051D01*
X01838Y027064D01*
D02*
G37*
G36*
X03238D02*
X032287Y027051D01*
X032201Y027016D01*
X032127Y026959D01*
X03207Y026885D01*
X032035Y026799D01*
X032023Y026706D01*
X032035Y026614D01*
X03207Y026527D01*
X032127Y026453D01*
X032201Y026397D01*
X032287Y026361D01*
X03238Y026349D01*
X032473Y026361D01*
X032559Y026397D01*
X032633Y026453D01*
X03269Y026527D01*
X032725Y026614D01*
X032737Y026706D01*
X032725Y026799D01*
X03269Y026885D01*
X032633Y026959D01*
X032559Y027016D01*
X032473Y027051D01*
X03238Y027064D01*
D02*
G37*
%LPD*%
D10*
X020844Y034706D02*
X02364Y03191D01*
X01838Y034706D02*
X020844D01*
X031086D02*
X03238D01*
X03055Y03417D02*
X031086Y034706D01*
X03055Y03191D02*
Y03417D01*
X02364Y03191D02*
X03055D01*
D18*
X02692Y02297D02*
Y02316D01*
X02131Y02289D02*
Y02297D01*
Y02316D01*
X02031Y02297D02*
X02036Y02302D01*
Y03301D01*
D19*
X02031Y02297D02*
D03*
X02131D02*
D03*
X02231D02*
D03*
X02331D02*
D03*
X02431D02*
D03*
X03238Y024706D02*
D03*
Y025706D02*
D03*
Y026706D02*
D03*
Y027706D02*
D03*
Y028706D02*
D03*
Y029706D02*
D03*
Y030706D02*
D03*
Y031706D02*
D03*
Y032706D02*
D03*
Y033706D02*
D03*
Y034706D02*
D03*
X01838Y024706D02*
D03*
Y025706D02*
D03*
Y026706D02*
D03*
Y027706D02*
D03*
Y028706D02*
D03*
Y029706D02*
D03*
Y030706D02*
D03*
Y031706D02*
D03*
Y032706D02*
D03*
Y033706D02*
D03*
Y034706D02*
D03*
X02892Y02297D02*
D03*
X02792D02*
D03*
X02692D02*
D03*
D20*
X02531D02*
D03*
X02992D02*
D03*
D21*
X03238Y023706D02*
D03*
X01838D02*
D03*
D22*
X033071Y041732D02*
D03*
Y040945D02*
D03*
Y040157D02*
D03*
Y03937D02*
D03*
Y038583D02*
D03*
Y037795D02*
D03*
Y037008D02*
D03*
Y03622D02*
D03*
Y035433D02*
D03*
Y034646D02*
D03*
Y033858D02*
D03*
X032283Y041732D02*
D03*
Y040945D02*
D03*
Y040157D02*
D03*
Y03937D02*
D03*
Y038583D02*
D03*
Y037795D02*
D03*
Y037008D02*
D03*
Y03622D02*
D03*
Y035433D02*
D03*
X031496Y041732D02*
D03*
Y040945D02*
D03*
Y040157D02*
D03*
Y03937D02*
D03*
Y038583D02*
D03*
Y037795D02*
D03*
Y037008D02*
D03*
Y03622D02*
D03*
Y035433D02*
D03*
X030709Y041732D02*
D03*
Y040945D02*
D03*
Y040157D02*
D03*
Y03937D02*
D03*
Y038583D02*
D03*
Y037795D02*
D03*
Y037008D02*
D03*
Y03622D02*
D03*
Y035433D02*
D03*
X029921Y041732D02*
D03*
Y040945D02*
D03*
Y03937D02*
D03*
Y038583D02*
D03*
Y037795D02*
D03*
Y037008D02*
D03*
Y03622D02*
D03*
Y035433D02*
D03*
Y034646D02*
D03*
Y033858D02*
D03*
X029134Y041732D02*
D03*
Y040945D02*
D03*
Y03937D02*
D03*
Y038583D02*
D03*
Y037795D02*
D03*
Y03622D02*
D03*
Y035433D02*
D03*
X028346Y041732D02*
D03*
Y040945D02*
D03*
Y040157D02*
D03*
Y03937D02*
D03*
Y038583D02*
D03*
Y037795D02*
D03*
Y03622D02*
D03*
Y035433D02*
D03*
Y034646D02*
D03*
Y033858D02*
D03*
X027559Y041732D02*
D03*
Y040945D02*
D03*
Y040157D02*
D03*
Y03937D02*
D03*
Y038583D02*
D03*
Y037795D02*
D03*
Y03622D02*
D03*
Y035433D02*
D03*
Y034646D02*
D03*
Y033858D02*
D03*
X026772Y041732D02*
D03*
Y040945D02*
D03*
Y040157D02*
D03*
Y03937D02*
D03*
Y038583D02*
D03*
Y037795D02*
D03*
Y03622D02*
D03*
Y034646D02*
D03*
Y033858D02*
D03*
X025984Y041732D02*
D03*
Y040945D02*
D03*
Y040157D02*
D03*
Y03937D02*
D03*
Y038583D02*
D03*
Y037795D02*
D03*
Y037008D02*
D03*
Y034646D02*
D03*
Y033858D02*
D03*
X025197Y041732D02*
D03*
Y040945D02*
D03*
Y040157D02*
D03*
Y03937D02*
D03*
Y038583D02*
D03*
Y037795D02*
D03*
Y037008D02*
D03*
Y03622D02*
D03*
Y034646D02*
D03*
Y033858D02*
D03*
X024409Y041732D02*
D03*
Y040945D02*
D03*
Y040157D02*
D03*
Y03937D02*
D03*
Y038583D02*
D03*
Y037795D02*
D03*
Y037008D02*
D03*
Y03622D02*
D03*
Y034646D02*
D03*
Y033858D02*
D03*
X023622Y041732D02*
D03*
Y040945D02*
D03*
Y040157D02*
D03*
Y03937D02*
D03*
Y038583D02*
D03*
Y037795D02*
D03*
Y037008D02*
D03*
Y03622D02*
D03*
Y035433D02*
D03*
Y034646D02*
D03*
Y033858D02*
D03*
X022835Y041732D02*
D03*
Y040945D02*
D03*
Y040157D02*
D03*
Y03937D02*
D03*
Y038583D02*
D03*
Y037795D02*
D03*
Y037008D02*
D03*
Y03622D02*
D03*
Y035433D02*
D03*
Y034646D02*
D03*
X022047Y041732D02*
D03*
Y040945D02*
D03*
Y040157D02*
D03*
Y03937D02*
D03*
Y038583D02*
D03*
Y037795D02*
D03*
Y037008D02*
D03*
Y03622D02*
D03*
Y035433D02*
D03*
X02126Y041732D02*
D03*
Y040945D02*
D03*
Y040157D02*
D03*
Y03937D02*
D03*
Y038583D02*
D03*
Y037795D02*
D03*
Y037008D02*
D03*
Y03622D02*
D03*
X020472Y041732D02*
D03*
Y040945D02*
D03*
Y040157D02*
D03*
Y03937D02*
D03*
Y038583D02*
D03*
Y037795D02*
D03*
Y037008D02*
D03*
Y03622D02*
D03*
Y035433D02*
D03*
Y033858D02*
D03*
X019685Y041732D02*
D03*
Y040945D02*
D03*
Y040157D02*
D03*
Y03937D02*
D03*
Y038583D02*
D03*
Y037795D02*
D03*
Y037008D02*
D03*
Y03622D02*
D03*
Y035433D02*
D03*
Y033858D02*
D03*
X018898Y041732D02*
D03*
Y040945D02*
D03*
Y040157D02*
D03*
Y03937D02*
D03*
Y038583D02*
D03*
Y037795D02*
D03*
Y037008D02*
D03*
Y03622D02*
D03*
Y035433D02*
D03*
X01811Y041732D02*
D03*
Y040945D02*
D03*
Y040157D02*
D03*
Y03937D02*
D03*
Y038583D02*
D03*
Y037795D02*
D03*
Y037008D02*
D03*
Y03622D02*
D03*
Y035433D02*
D03*
X017323Y041732D02*
D03*
Y040945D02*
D03*
Y040157D02*
D03*
Y03937D02*
D03*
Y038583D02*
D03*
Y037795D02*
D03*
Y037008D02*
D03*
Y03622D02*
D03*
Y035433D02*
D03*
Y034646D02*
D03*
Y033858D02*
D03*
D23*
X03055Y03191D02*
D03*
X02036Y03301D02*
D03*
M02*
