G04 Layer_Color=65535*
%FSTAX24Y24*%
%MOIN*%
G70*
G01*
G75*
%ADD24C,0.0000*%
%ADD25C,0.0050*%
%ADD26C,0.0040*%
%ADD27C,0.0079*%
%ADD28C,0.0059*%
D24*
X029463Y024708D02*
X029413Y024794D01*
X029313D01*
X029263Y024708D01*
X029313Y024621D01*
X029413D01*
X029463Y024708D01*
D25*
X01977Y020014D02*
Y020684D01*
X01824Y020014D02*
X01977D01*
X01824D02*
Y020684D01*
X01977D01*
X02175Y020014D02*
Y020684D01*
X02022Y020014D02*
X02175D01*
X02022D02*
Y020684D01*
X02175D01*
X02022Y0211D02*
X02175D01*
Y02177D01*
X02022D02*
X02175D01*
X02022Y0211D02*
Y02177D01*
X01824Y0211D02*
X01977D01*
Y02177D01*
X01824D02*
X01977D01*
X01824Y0211D02*
Y02177D01*
X03166Y0211D02*
Y02177D01*
X03013Y0211D02*
X03166D01*
X03013D02*
Y02177D01*
X03166D01*
X03013Y020014D02*
X03166D01*
Y020684D01*
X03013D02*
X03166D01*
X03013Y020014D02*
Y020684D01*
X029956Y039856D02*
Y039884D01*
X029759Y039856D02*
X029956D01*
X029224D02*
X029421D01*
X029224D02*
Y039884D01*
X029759Y040604D02*
X029952D01*
X029228D02*
X029421D01*
X02081Y03588D02*
X02148D01*
Y03435D02*
Y03588D01*
X02081Y03435D02*
X02148D01*
X02081D02*
Y03588D01*
X02084Y03238D02*
X02151D01*
X02084D02*
Y03391D01*
X02151D01*
Y03238D02*
Y03391D01*
X02765Y0352D02*
X02915D01*
X02215D02*
X02365D01*
X02215Y0247D02*
X02915D01*
X03021Y03D02*
X03088D01*
X03021D02*
Y03153D01*
X03088D01*
Y03D02*
Y03153D01*
D26*
X01883Y020594D02*
X01917D01*
X01883Y020094D02*
X01917D01*
X02081Y020594D02*
X02115D01*
X02081Y020094D02*
X02115D01*
X02082Y02169D02*
X02116D01*
X02082Y02119D02*
X02116D01*
X01884Y02169D02*
X01918D01*
X01884Y02119D02*
X01918D01*
X03072Y02168D02*
X03106D01*
X03072Y02118D02*
X03106D01*
X03073Y020604D02*
X03107D01*
X03073Y020104D02*
X03107D01*
X0209Y03494D02*
Y03528D01*
X0214Y03494D02*
Y03528D01*
X02142Y03298D02*
Y03332D01*
X02092Y03298D02*
Y03332D01*
X03079Y0306D02*
Y03094D01*
X03029Y0306D02*
Y03094D01*
D27*
X01981Y02347D02*
X02581D01*
X01981Y02247D02*
X02581D01*
Y02347D01*
X01981Y02247D02*
Y02347D01*
X03188Y035206D02*
X03288D01*
Y023206D02*
Y035206D01*
X03188Y023206D02*
X03288D01*
X03188D02*
Y023956D01*
Y035206D01*
X01788D02*
X01888D01*
Y023206D02*
Y035206D01*
X01788Y023206D02*
X01888D01*
X01788D02*
Y023956D01*
Y035206D01*
X02642Y02247D02*
Y02347D01*
X03042D01*
X02642Y02247D02*
X03042D01*
Y02347D01*
D28*
X02221Y02131D02*
Y021743D01*
X022426D01*
X022499Y021671D01*
Y021526D01*
X022426Y021454D01*
X02221D01*
X022354D02*
X022499Y02131D01*
X022859D02*
Y021743D01*
X022643Y021526D01*
X022932D01*
X0173Y02127D02*
Y021703D01*
X017516D01*
X017589Y021631D01*
Y021486D01*
X017516Y021414D01*
X0173D01*
X017444D02*
X017589Y02127D01*
X017733Y021631D02*
X017805Y021703D01*
X017949D01*
X018022Y021631D01*
Y021559D01*
X017949Y021486D01*
X017877D01*
X017949D01*
X018022Y021414D01*
Y021342D01*
X017949Y02127D01*
X017805D01*
X017733Y021342D01*
X03216Y020174D02*
Y020607D01*
X032376D01*
X032449Y020535D01*
Y020391D01*
X032376Y020319D01*
X03216D01*
X032304D02*
X032449Y020174D01*
X032882D02*
X032593D01*
X032882Y020463D01*
Y020535D01*
X032809Y020607D01*
X032665D01*
X032593Y020535D01*
X022206Y020543D02*
Y02011D01*
X022423D01*
X022495Y020182D01*
Y020471D01*
X022423Y020543D01*
X022206D01*
X022639Y020471D02*
X022711Y020543D01*
X022855D01*
X022928Y020471D01*
Y020399D01*
X022855Y020326D01*
X022783D01*
X022855D01*
X022928Y020254D01*
Y020182D01*
X022855Y02011D01*
X022711D01*
X022639Y020182D01*
X0173Y020583D02*
Y02015D01*
X017516D01*
X017589Y020222D01*
Y020511D01*
X017516Y020583D01*
X0173D01*
X018022Y02015D02*
X017733D01*
X018022Y020439D01*
Y020511D01*
X017949Y020583D01*
X017805D01*
X017733Y020511D01*
X032136Y021687D02*
Y021254D01*
X032353D01*
X032425Y021326D01*
Y021615D01*
X032353Y021687D01*
X032136D01*
X032569Y021254D02*
X032713D01*
X032641D01*
Y021687D01*
X032569Y021615D01*
X020249Y035039D02*
X020177Y034966D01*
Y034822D01*
X020249Y03475D01*
X020538D01*
X02061Y034822D01*
Y034966D01*
X020538Y035039D01*
X02061Y035472D02*
Y035183D01*
X020321Y035472D01*
X020249D01*
X020177Y035399D01*
Y035255D01*
X020249Y035183D01*
X031431Y030961D02*
X031503Y031034D01*
Y031178D01*
X031431Y03125D01*
X031142D01*
X03107Y031178D01*
Y031034D01*
X031142Y030961D01*
X03107Y030817D02*
Y030673D01*
Y030745D01*
X031503D01*
X031431Y030817D01*
X028712Y040813D02*
X028567D01*
X028639D01*
Y040452D01*
X028567Y04038D01*
X028495D01*
X028423Y040452D01*
X01983Y02377D02*
Y024203D01*
X020046D01*
X020119Y024131D01*
Y023986D01*
X020046Y023914D01*
X01983D01*
X020263Y024131D02*
X020335Y024203D01*
X020479D01*
X020552Y024131D01*
Y024059D01*
X020479Y023986D01*
X020407D01*
X020479D01*
X020552Y023914D01*
Y023842D01*
X020479Y02377D01*
X020335D01*
X020263Y023842D01*
X0319Y035506D02*
Y035939D01*
X032116D01*
X032189Y035867D01*
Y035723D01*
X032116Y03565D01*
X0319D01*
X032622Y035506D02*
X032333D01*
X032622Y035795D01*
Y035867D01*
X032549Y035939D01*
X032405D01*
X032333Y035867D01*
X0179Y035506D02*
Y035939D01*
X018116D01*
X018189Y035867D01*
Y035723D01*
X018116Y03565D01*
X0179D01*
X018333Y035506D02*
X018477D01*
X018405D01*
Y035939D01*
X018333Y035867D01*
X02233Y036043D02*
Y035682D01*
X022402Y03561D01*
X022546D01*
X022619Y035682D01*
Y036043D01*
X02644Y02377D02*
Y024203D01*
X026656D01*
X026729Y024131D01*
Y023986D01*
X026656Y023914D01*
X02644D01*
X027089Y02377D02*
Y024203D01*
X026873Y023986D01*
X027162D01*
X02053Y03288D02*
X020097D01*
Y033096D01*
X020169Y033169D01*
X020314D01*
X020386Y033096D01*
Y03288D01*
Y033024D02*
X02053Y033169D01*
Y033313D02*
Y033457D01*
Y033385D01*
X020097D01*
X020169Y033313D01*
M02*
