G04 Layer_Color=2752767*
%FSTAX24Y24*%
%MOIN*%
G70*
G01*
G75*
%ADD43C,0.0020*%
%ADD44C,0.0027*%
D43*
X02023Y02289D02*
Y02305D01*
X02039D01*
Y02289D01*
X02023D01*
X02123D02*
Y02305D01*
X02139D01*
Y02289D01*
X02123D01*
X02223D02*
Y02305D01*
X02239D01*
Y02289D01*
X02223D01*
X02323D02*
Y02305D01*
X02339D01*
Y02289D01*
X02323D01*
X02423D02*
Y02305D01*
X02439D01*
Y02289D01*
X02423D01*
X02523D02*
Y02305D01*
X02539D01*
Y02289D01*
X02523D01*
X0323Y023626D02*
Y023786D01*
X03246D01*
Y023626D01*
X0323D01*
Y024626D02*
Y024786D01*
X03246D01*
Y024626D01*
X0323D01*
Y025626D02*
Y025786D01*
X03246D01*
Y025626D01*
X0323D01*
Y026626D02*
Y026786D01*
X03246D01*
Y026626D01*
X0323D01*
Y027626D02*
Y027786D01*
X03246D01*
Y027626D01*
X0323D01*
Y028626D02*
Y028786D01*
X03246D01*
Y028626D01*
X0323D01*
Y029626D02*
Y029786D01*
X03246D01*
Y029626D01*
X0323D01*
Y030626D02*
Y030786D01*
X03246D01*
Y030626D01*
X0323D01*
Y031626D02*
Y031786D01*
X03246D01*
Y031626D01*
X0323D01*
Y032626D02*
Y032786D01*
X03246D01*
Y032626D01*
X0323D01*
Y033626D02*
Y033786D01*
X03246D01*
Y033626D01*
X0323D01*
Y034626D02*
Y034786D01*
X03246D01*
Y034626D01*
X0323D01*
X0183Y023626D02*
Y023786D01*
X01846D01*
Y023626D01*
X0183D01*
Y024626D02*
Y024786D01*
X01846D01*
Y024626D01*
X0183D01*
Y025626D02*
Y025786D01*
X01846D01*
Y025626D01*
X0183D01*
Y026626D02*
Y026786D01*
X01846D01*
Y026626D01*
X0183D01*
Y027626D02*
Y027786D01*
X01846D01*
Y027626D01*
X0183D01*
Y028626D02*
Y028786D01*
X01846D01*
Y028626D01*
X0183D01*
Y029626D02*
Y029786D01*
X01846D01*
Y029626D01*
X0183D01*
Y030626D02*
Y030786D01*
X01846D01*
Y030626D01*
X0183D01*
Y031626D02*
Y031786D01*
X01846D01*
Y031626D01*
X0183D01*
Y032626D02*
Y032786D01*
X01846D01*
Y032626D01*
X0183D01*
Y033626D02*
Y033786D01*
X01846D01*
Y033626D01*
X0183D01*
Y034626D02*
Y034786D01*
X01846D01*
Y034626D01*
X0183D01*
X02984Y02289D02*
Y02305D01*
X03D01*
Y02289D01*
X02984D01*
X02884D02*
Y02305D01*
X029D01*
Y02289D01*
X02884D01*
X02784D02*
Y02305D01*
X028D01*
Y02289D01*
X02784D01*
X02684D02*
Y02305D01*
X027D01*
Y02289D01*
X02684D01*
X03055Y03183D02*
X03047Y03199D01*
X03063D01*
X03055Y03183D01*
X02036Y03293D02*
X02028Y03309D01*
X02044D01*
X02036Y03293D01*
D44*
X033151Y041732D02*
X033096Y041808D01*
X033006Y041779D01*
Y041685D01*
X033096Y041656D01*
X033151Y041732D01*
Y040945D02*
X033096Y041021D01*
X033006Y040992D01*
Y040898D01*
X033096Y040869D01*
X033151Y040945D01*
Y040157D02*
X033096Y040234D01*
X033006Y040205D01*
Y04011D01*
X033096Y040081D01*
X033151Y040157D01*
Y03937D02*
X033096Y039446D01*
X033006Y039417D01*
Y039323D01*
X033096Y039294D01*
X033151Y03937D01*
Y038583D02*
X033096Y038659D01*
X033006Y03863D01*
Y038536D01*
X033096Y038507D01*
X033151Y038583D01*
Y037795D02*
X033096Y037871D01*
X033006Y037842D01*
Y037748D01*
X033096Y037719D01*
X033151Y037795D01*
Y037008D02*
X033096Y037084D01*
X033006Y037055D01*
Y036961D01*
X033096Y036932D01*
X033151Y037008D01*
Y03622D02*
X033096Y036297D01*
X033006Y036268D01*
Y036173D01*
X033096Y036144D01*
X033151Y03622D01*
Y035433D02*
X033096Y035509D01*
X033006Y03548D01*
Y035386D01*
X033096Y035357D01*
X033151Y035433D01*
Y034646D02*
X033096Y034722D01*
X033006Y034693D01*
Y034599D01*
X033096Y03457D01*
X033151Y034646D01*
Y033858D02*
X033096Y033934D01*
X033006Y033905D01*
Y033811D01*
X033096Y033782D01*
X033151Y033858D01*
X032363Y041732D02*
X032308Y041808D01*
X032219Y041779D01*
Y041685D01*
X032308Y041656D01*
X032363Y041732D01*
Y040945D02*
X032308Y041021D01*
X032219Y040992D01*
Y040898D01*
X032308Y040869D01*
X032363Y040945D01*
Y040157D02*
X032308Y040234D01*
X032219Y040205D01*
Y04011D01*
X032308Y040081D01*
X032363Y040157D01*
Y03937D02*
X032308Y039446D01*
X032219Y039417D01*
Y039323D01*
X032308Y039294D01*
X032363Y03937D01*
Y038583D02*
X032308Y038659D01*
X032219Y03863D01*
Y038536D01*
X032308Y038507D01*
X032363Y038583D01*
Y037795D02*
X032308Y037871D01*
X032219Y037842D01*
Y037748D01*
X032308Y037719D01*
X032363Y037795D01*
Y037008D02*
X032308Y037084D01*
X032219Y037055D01*
Y036961D01*
X032308Y036932D01*
X032363Y037008D01*
Y03622D02*
X032308Y036297D01*
X032219Y036268D01*
Y036173D01*
X032308Y036144D01*
X032363Y03622D01*
Y035433D02*
X032308Y035509D01*
X032219Y03548D01*
Y035386D01*
X032308Y035357D01*
X032363Y035433D01*
X031576Y041732D02*
X031521Y041808D01*
X031431Y041779D01*
Y041685D01*
X031521Y041656D01*
X031576Y041732D01*
Y040945D02*
X031521Y041021D01*
X031431Y040992D01*
Y040898D01*
X031521Y040869D01*
X031576Y040945D01*
Y040157D02*
X031521Y040234D01*
X031431Y040205D01*
Y04011D01*
X031521Y040081D01*
X031576Y040157D01*
Y03937D02*
X031521Y039446D01*
X031431Y039417D01*
Y039323D01*
X031521Y039294D01*
X031576Y03937D01*
Y038583D02*
X031521Y038659D01*
X031431Y03863D01*
Y038536D01*
X031521Y038507D01*
X031576Y038583D01*
Y037795D02*
X031521Y037871D01*
X031431Y037842D01*
Y037748D01*
X031521Y037719D01*
X031576Y037795D01*
Y037008D02*
X031521Y037084D01*
X031431Y037055D01*
Y036961D01*
X031521Y036932D01*
X031576Y037008D01*
Y03622D02*
X031521Y036297D01*
X031431Y036268D01*
Y036173D01*
X031521Y036144D01*
X031576Y03622D01*
Y035433D02*
X031521Y035509D01*
X031431Y03548D01*
Y035386D01*
X031521Y035357D01*
X031576Y035433D01*
X030789Y041732D02*
X030733Y041808D01*
X030644Y041779D01*
Y041685D01*
X030733Y041656D01*
X030789Y041732D01*
Y040945D02*
X030733Y041021D01*
X030644Y040992D01*
Y040898D01*
X030733Y040869D01*
X030789Y040945D01*
Y040157D02*
X030733Y040234D01*
X030644Y040205D01*
Y04011D01*
X030733Y040081D01*
X030789Y040157D01*
Y03937D02*
X030733Y039446D01*
X030644Y039417D01*
Y039323D01*
X030733Y039294D01*
X030789Y03937D01*
Y038583D02*
X030733Y038659D01*
X030644Y03863D01*
Y038536D01*
X030733Y038507D01*
X030789Y038583D01*
Y037795D02*
X030733Y037871D01*
X030644Y037842D01*
Y037748D01*
X030733Y037719D01*
X030789Y037795D01*
Y037008D02*
X030733Y037084D01*
X030644Y037055D01*
Y036961D01*
X030733Y036932D01*
X030789Y037008D01*
Y03622D02*
X030733Y036297D01*
X030644Y036268D01*
Y036173D01*
X030733Y036144D01*
X030789Y03622D01*
Y035433D02*
X030733Y035509D01*
X030644Y03548D01*
Y035386D01*
X030733Y035357D01*
X030789Y035433D01*
X030001Y041732D02*
X029946Y041808D01*
X029857Y041779D01*
Y041685D01*
X029946Y041656D01*
X030001Y041732D01*
Y040945D02*
X029946Y041021D01*
X029857Y040992D01*
Y040898D01*
X029946Y040869D01*
X030001Y040945D01*
Y03937D02*
X029946Y039446D01*
X029857Y039417D01*
Y039323D01*
X029946Y039294D01*
X030001Y03937D01*
Y038583D02*
X029946Y038659D01*
X029857Y03863D01*
Y038536D01*
X029946Y038507D01*
X030001Y038583D01*
Y037795D02*
X029946Y037871D01*
X029857Y037842D01*
Y037748D01*
X029946Y037719D01*
X030001Y037795D01*
Y037008D02*
X029946Y037084D01*
X029857Y037055D01*
Y036961D01*
X029946Y036932D01*
X030001Y037008D01*
Y03622D02*
X029946Y036297D01*
X029857Y036268D01*
Y036173D01*
X029946Y036144D01*
X030001Y03622D01*
Y035433D02*
X029946Y035509D01*
X029857Y03548D01*
Y035386D01*
X029946Y035357D01*
X030001Y035433D01*
Y034646D02*
X029946Y034722D01*
X029857Y034693D01*
Y034599D01*
X029946Y03457D01*
X030001Y034646D01*
Y033858D02*
X029946Y033934D01*
X029857Y033905D01*
Y033811D01*
X029946Y033782D01*
X030001Y033858D01*
X029214Y041732D02*
X029159Y041808D01*
X029069Y041779D01*
Y041685D01*
X029159Y041656D01*
X029214Y041732D01*
Y040945D02*
X029159Y041021D01*
X029069Y040992D01*
Y040898D01*
X029159Y040869D01*
X029214Y040945D01*
Y03937D02*
X029159Y039446D01*
X029069Y039417D01*
Y039323D01*
X029159Y039294D01*
X029214Y03937D01*
Y038583D02*
X029159Y038659D01*
X029069Y03863D01*
Y038536D01*
X029159Y038507D01*
X029214Y038583D01*
Y037795D02*
X029159Y037871D01*
X029069Y037842D01*
Y037748D01*
X029159Y037719D01*
X029214Y037795D01*
Y03622D02*
X029159Y036297D01*
X029069Y036268D01*
Y036173D01*
X029159Y036144D01*
X029214Y03622D01*
Y035433D02*
X029159Y035509D01*
X029069Y03548D01*
Y035386D01*
X029159Y035357D01*
X029214Y035433D01*
X028426Y041732D02*
X028371Y041808D01*
X028282Y041779D01*
Y041685D01*
X028371Y041656D01*
X028426Y041732D01*
Y040945D02*
X028371Y041021D01*
X028282Y040992D01*
Y040898D01*
X028371Y040869D01*
X028426Y040945D01*
Y040157D02*
X028371Y040234D01*
X028282Y040205D01*
Y04011D01*
X028371Y040081D01*
X028426Y040157D01*
Y03937D02*
X028371Y039446D01*
X028282Y039417D01*
Y039323D01*
X028371Y039294D01*
X028426Y03937D01*
Y038583D02*
X028371Y038659D01*
X028282Y03863D01*
Y038536D01*
X028371Y038507D01*
X028426Y038583D01*
Y037795D02*
X028371Y037871D01*
X028282Y037842D01*
Y037748D01*
X028371Y037719D01*
X028426Y037795D01*
Y03622D02*
X028371Y036297D01*
X028282Y036268D01*
Y036173D01*
X028371Y036144D01*
X028426Y03622D01*
Y035433D02*
X028371Y035509D01*
X028282Y03548D01*
Y035386D01*
X028371Y035357D01*
X028426Y035433D01*
Y034646D02*
X028371Y034722D01*
X028282Y034693D01*
Y034599D01*
X028371Y03457D01*
X028426Y034646D01*
Y033858D02*
X028371Y033934D01*
X028282Y033905D01*
Y033811D01*
X028371Y033782D01*
X028426Y033858D01*
X027639Y041732D02*
X027584Y041808D01*
X027494Y041779D01*
Y041685D01*
X027584Y041656D01*
X027639Y041732D01*
Y040945D02*
X027584Y041021D01*
X027494Y040992D01*
Y040898D01*
X027584Y040869D01*
X027639Y040945D01*
Y040157D02*
X027584Y040234D01*
X027494Y040205D01*
Y04011D01*
X027584Y040081D01*
X027639Y040157D01*
Y03937D02*
X027584Y039446D01*
X027494Y039417D01*
Y039323D01*
X027584Y039294D01*
X027639Y03937D01*
Y038583D02*
X027584Y038659D01*
X027494Y03863D01*
Y038536D01*
X027584Y038507D01*
X027639Y038583D01*
Y037795D02*
X027584Y037871D01*
X027494Y037842D01*
Y037748D01*
X027584Y037719D01*
X027639Y037795D01*
Y03622D02*
X027584Y036297D01*
X027494Y036268D01*
Y036173D01*
X027584Y036144D01*
X027639Y03622D01*
Y035433D02*
X027584Y035509D01*
X027494Y03548D01*
Y035386D01*
X027584Y035357D01*
X027639Y035433D01*
Y034646D02*
X027584Y034722D01*
X027494Y034693D01*
Y034599D01*
X027584Y03457D01*
X027639Y034646D01*
Y033858D02*
X027584Y033934D01*
X027494Y033905D01*
Y033811D01*
X027584Y033782D01*
X027639Y033858D01*
X026852Y041732D02*
X026796Y041808D01*
X026707Y041779D01*
Y041685D01*
X026796Y041656D01*
X026852Y041732D01*
Y040945D02*
X026796Y041021D01*
X026707Y040992D01*
Y040898D01*
X026796Y040869D01*
X026852Y040945D01*
Y040157D02*
X026796Y040234D01*
X026707Y040205D01*
Y04011D01*
X026796Y040081D01*
X026852Y040157D01*
Y03937D02*
X026796Y039446D01*
X026707Y039417D01*
Y039323D01*
X026796Y039294D01*
X026852Y03937D01*
Y038583D02*
X026796Y038659D01*
X026707Y03863D01*
Y038536D01*
X026796Y038507D01*
X026852Y038583D01*
Y037795D02*
X026796Y037871D01*
X026707Y037842D01*
Y037748D01*
X026796Y037719D01*
X026852Y037795D01*
Y03622D02*
X026796Y036297D01*
X026707Y036268D01*
Y036173D01*
X026796Y036144D01*
X026852Y03622D01*
Y034646D02*
X026796Y034722D01*
X026707Y034693D01*
Y034599D01*
X026796Y03457D01*
X026852Y034646D01*
Y033858D02*
X026796Y033934D01*
X026707Y033905D01*
Y033811D01*
X026796Y033782D01*
X026852Y033858D01*
X026064Y041732D02*
X026009Y041808D01*
X02592Y041779D01*
Y041685D01*
X026009Y041656D01*
X026064Y041732D01*
Y040945D02*
X026009Y041021D01*
X02592Y040992D01*
Y040898D01*
X026009Y040869D01*
X026064Y040945D01*
Y040157D02*
X026009Y040234D01*
X02592Y040205D01*
Y04011D01*
X026009Y040081D01*
X026064Y040157D01*
Y03937D02*
X026009Y039446D01*
X02592Y039417D01*
Y039323D01*
X026009Y039294D01*
X026064Y03937D01*
Y038583D02*
X026009Y038659D01*
X02592Y03863D01*
Y038536D01*
X026009Y038507D01*
X026064Y038583D01*
Y037795D02*
X026009Y037871D01*
X02592Y037842D01*
Y037748D01*
X026009Y037719D01*
X026064Y037795D01*
Y037008D02*
X026009Y037084D01*
X02592Y037055D01*
Y036961D01*
X026009Y036932D01*
X026064Y037008D01*
Y034646D02*
X026009Y034722D01*
X02592Y034693D01*
Y034599D01*
X026009Y03457D01*
X026064Y034646D01*
Y033858D02*
X026009Y033934D01*
X02592Y033905D01*
Y033811D01*
X026009Y033782D01*
X026064Y033858D01*
X025277Y041732D02*
X025222Y041808D01*
X025132Y041779D01*
Y041685D01*
X025222Y041656D01*
X025277Y041732D01*
Y040945D02*
X025222Y041021D01*
X025132Y040992D01*
Y040898D01*
X025222Y040869D01*
X025277Y040945D01*
Y040157D02*
X025222Y040234D01*
X025132Y040205D01*
Y04011D01*
X025222Y040081D01*
X025277Y040157D01*
Y03937D02*
X025222Y039446D01*
X025132Y039417D01*
Y039323D01*
X025222Y039294D01*
X025277Y03937D01*
Y038583D02*
X025222Y038659D01*
X025132Y03863D01*
Y038536D01*
X025222Y038507D01*
X025277Y038583D01*
Y037795D02*
X025222Y037871D01*
X025132Y037842D01*
Y037748D01*
X025222Y037719D01*
X025277Y037795D01*
Y037008D02*
X025222Y037084D01*
X025132Y037055D01*
Y036961D01*
X025222Y036932D01*
X025277Y037008D01*
Y03622D02*
X025222Y036297D01*
X025132Y036268D01*
Y036173D01*
X025222Y036144D01*
X025277Y03622D01*
Y034646D02*
X025222Y034722D01*
X025132Y034693D01*
Y034599D01*
X025222Y03457D01*
X025277Y034646D01*
Y033858D02*
X025222Y033934D01*
X025132Y033905D01*
Y033811D01*
X025222Y033782D01*
X025277Y033858D01*
X024489Y041732D02*
X024434Y041808D01*
X024345Y041779D01*
Y041685D01*
X024434Y041656D01*
X024489Y041732D01*
Y040945D02*
X024434Y041021D01*
X024345Y040992D01*
Y040898D01*
X024434Y040869D01*
X024489Y040945D01*
Y040157D02*
X024434Y040234D01*
X024345Y040205D01*
Y04011D01*
X024434Y040081D01*
X024489Y040157D01*
Y03937D02*
X024434Y039446D01*
X024345Y039417D01*
Y039323D01*
X024434Y039294D01*
X024489Y03937D01*
Y038583D02*
X024434Y038659D01*
X024345Y03863D01*
Y038536D01*
X024434Y038507D01*
X024489Y038583D01*
Y037795D02*
X024434Y037871D01*
X024345Y037842D01*
Y037748D01*
X024434Y037719D01*
X024489Y037795D01*
Y037008D02*
X024434Y037084D01*
X024345Y037055D01*
Y036961D01*
X024434Y036932D01*
X024489Y037008D01*
Y03622D02*
X024434Y036297D01*
X024345Y036268D01*
Y036173D01*
X024434Y036144D01*
X024489Y03622D01*
Y034646D02*
X024434Y034722D01*
X024345Y034693D01*
Y034599D01*
X024434Y03457D01*
X024489Y034646D01*
Y033858D02*
X024434Y033934D01*
X024345Y033905D01*
Y033811D01*
X024434Y033782D01*
X024489Y033858D01*
X023702Y041732D02*
X023647Y041808D01*
X023557Y041779D01*
Y041685D01*
X023647Y041656D01*
X023702Y041732D01*
Y040945D02*
X023647Y041021D01*
X023557Y040992D01*
Y040898D01*
X023647Y040869D01*
X023702Y040945D01*
Y040157D02*
X023647Y040234D01*
X023557Y040205D01*
Y04011D01*
X023647Y040081D01*
X023702Y040157D01*
Y03937D02*
X023647Y039446D01*
X023557Y039417D01*
Y039323D01*
X023647Y039294D01*
X023702Y03937D01*
Y038583D02*
X023647Y038659D01*
X023557Y03863D01*
Y038536D01*
X023647Y038507D01*
X023702Y038583D01*
Y037795D02*
X023647Y037871D01*
X023557Y037842D01*
Y037748D01*
X023647Y037719D01*
X023702Y037795D01*
Y037008D02*
X023647Y037084D01*
X023557Y037055D01*
Y036961D01*
X023647Y036932D01*
X023702Y037008D01*
Y03622D02*
X023647Y036297D01*
X023557Y036268D01*
Y036173D01*
X023647Y036144D01*
X023702Y03622D01*
Y035433D02*
X023647Y035509D01*
X023557Y03548D01*
Y035386D01*
X023647Y035357D01*
X023702Y035433D01*
Y034646D02*
X023647Y034722D01*
X023557Y034693D01*
Y034599D01*
X023647Y03457D01*
X023702Y034646D01*
Y033858D02*
X023647Y033934D01*
X023557Y033905D01*
Y033811D01*
X023647Y033782D01*
X023702Y033858D01*
X022915Y041732D02*
X022859Y041808D01*
X02277Y041779D01*
Y041685D01*
X022859Y041656D01*
X022915Y041732D01*
Y040945D02*
X022859Y041021D01*
X02277Y040992D01*
Y040898D01*
X022859Y040869D01*
X022915Y040945D01*
Y040157D02*
X022859Y040234D01*
X02277Y040205D01*
Y04011D01*
X022859Y040081D01*
X022915Y040157D01*
Y03937D02*
X022859Y039446D01*
X02277Y039417D01*
Y039323D01*
X022859Y039294D01*
X022915Y03937D01*
Y038583D02*
X022859Y038659D01*
X02277Y03863D01*
Y038536D01*
X022859Y038507D01*
X022915Y038583D01*
Y037795D02*
X022859Y037871D01*
X02277Y037842D01*
Y037748D01*
X022859Y037719D01*
X022915Y037795D01*
Y037008D02*
X022859Y037084D01*
X02277Y037055D01*
Y036961D01*
X022859Y036932D01*
X022915Y037008D01*
Y03622D02*
X022859Y036297D01*
X02277Y036268D01*
Y036173D01*
X022859Y036144D01*
X022915Y03622D01*
Y035433D02*
X022859Y035509D01*
X02277Y03548D01*
Y035386D01*
X022859Y035357D01*
X022915Y035433D01*
Y034646D02*
X022859Y034722D01*
X02277Y034693D01*
Y034599D01*
X022859Y03457D01*
X022915Y034646D01*
X022127Y041732D02*
X022072Y041808D01*
X021983Y041779D01*
Y041685D01*
X022072Y041656D01*
X022127Y041732D01*
Y040945D02*
X022072Y041021D01*
X021983Y040992D01*
Y040898D01*
X022072Y040869D01*
X022127Y040945D01*
Y040157D02*
X022072Y040234D01*
X021983Y040205D01*
Y04011D01*
X022072Y040081D01*
X022127Y040157D01*
Y03937D02*
X022072Y039446D01*
X021983Y039417D01*
Y039323D01*
X022072Y039294D01*
X022127Y03937D01*
Y038583D02*
X022072Y038659D01*
X021983Y03863D01*
Y038536D01*
X022072Y038507D01*
X022127Y038583D01*
Y037795D02*
X022072Y037871D01*
X021983Y037842D01*
Y037748D01*
X022072Y037719D01*
X022127Y037795D01*
Y037008D02*
X022072Y037084D01*
X021983Y037055D01*
Y036961D01*
X022072Y036932D01*
X022127Y037008D01*
Y03622D02*
X022072Y036297D01*
X021983Y036268D01*
Y036173D01*
X022072Y036144D01*
X022127Y03622D01*
Y035433D02*
X022072Y035509D01*
X021983Y03548D01*
Y035386D01*
X022072Y035357D01*
X022127Y035433D01*
X02134Y041732D02*
X021285Y041808D01*
X021195Y041779D01*
Y041685D01*
X021285Y041656D01*
X02134Y041732D01*
Y040945D02*
X021285Y041021D01*
X021195Y040992D01*
Y040898D01*
X021285Y040869D01*
X02134Y040945D01*
Y040157D02*
X021285Y040234D01*
X021195Y040205D01*
Y04011D01*
X021285Y040081D01*
X02134Y040157D01*
Y03937D02*
X021285Y039446D01*
X021195Y039417D01*
Y039323D01*
X021285Y039294D01*
X02134Y03937D01*
Y038583D02*
X021285Y038659D01*
X021195Y03863D01*
Y038536D01*
X021285Y038507D01*
X02134Y038583D01*
Y037795D02*
X021285Y037871D01*
X021195Y037842D01*
Y037748D01*
X021285Y037719D01*
X02134Y037795D01*
Y037008D02*
X021285Y037084D01*
X021195Y037055D01*
Y036961D01*
X021285Y036932D01*
X02134Y037008D01*
Y03622D02*
X021285Y036297D01*
X021195Y036268D01*
Y036173D01*
X021285Y036144D01*
X02134Y03622D01*
X020552Y041732D02*
X020497Y041808D01*
X020408Y041779D01*
Y041685D01*
X020497Y041656D01*
X020552Y041732D01*
Y040945D02*
X020497Y041021D01*
X020408Y040992D01*
Y040898D01*
X020497Y040869D01*
X020552Y040945D01*
Y040157D02*
X020497Y040234D01*
X020408Y040205D01*
Y04011D01*
X020497Y040081D01*
X020552Y040157D01*
Y03937D02*
X020497Y039446D01*
X020408Y039417D01*
Y039323D01*
X020497Y039294D01*
X020552Y03937D01*
Y038583D02*
X020497Y038659D01*
X020408Y03863D01*
Y038536D01*
X020497Y038507D01*
X020552Y038583D01*
Y037795D02*
X020497Y037871D01*
X020408Y037842D01*
Y037748D01*
X020497Y037719D01*
X020552Y037795D01*
Y037008D02*
X020497Y037084D01*
X020408Y037055D01*
Y036961D01*
X020497Y036932D01*
X020552Y037008D01*
Y03622D02*
X020497Y036297D01*
X020408Y036268D01*
Y036173D01*
X020497Y036144D01*
X020552Y03622D01*
Y035433D02*
X020497Y035509D01*
X020408Y03548D01*
Y035386D01*
X020497Y035357D01*
X020552Y035433D01*
Y033858D02*
X020497Y033934D01*
X020408Y033905D01*
Y033811D01*
X020497Y033782D01*
X020552Y033858D01*
X019765Y041732D02*
X01971Y041808D01*
X01962Y041779D01*
Y041685D01*
X01971Y041656D01*
X019765Y041732D01*
Y040945D02*
X01971Y041021D01*
X01962Y040992D01*
Y040898D01*
X01971Y040869D01*
X019765Y040945D01*
Y040157D02*
X01971Y040234D01*
X01962Y040205D01*
Y04011D01*
X01971Y040081D01*
X019765Y040157D01*
Y03937D02*
X01971Y039446D01*
X01962Y039417D01*
Y039323D01*
X01971Y039294D01*
X019765Y03937D01*
Y038583D02*
X01971Y038659D01*
X01962Y03863D01*
Y038536D01*
X01971Y038507D01*
X019765Y038583D01*
Y037795D02*
X01971Y037871D01*
X01962Y037842D01*
Y037748D01*
X01971Y037719D01*
X019765Y037795D01*
Y037008D02*
X01971Y037084D01*
X01962Y037055D01*
Y036961D01*
X01971Y036932D01*
X019765Y037008D01*
Y03622D02*
X01971Y036297D01*
X01962Y036268D01*
Y036173D01*
X01971Y036144D01*
X019765Y03622D01*
Y035433D02*
X01971Y035509D01*
X01962Y03548D01*
Y035386D01*
X01971Y035357D01*
X019765Y035433D01*
Y033858D02*
X01971Y033934D01*
X01962Y033905D01*
Y033811D01*
X01971Y033782D01*
X019765Y033858D01*
X018978Y041732D02*
X018922Y041808D01*
X018833Y041779D01*
Y041685D01*
X018922Y041656D01*
X018978Y041732D01*
Y040945D02*
X018922Y041021D01*
X018833Y040992D01*
Y040898D01*
X018922Y040869D01*
X018978Y040945D01*
Y040157D02*
X018922Y040234D01*
X018833Y040205D01*
Y04011D01*
X018922Y040081D01*
X018978Y040157D01*
Y03937D02*
X018922Y039446D01*
X018833Y039417D01*
Y039323D01*
X018922Y039294D01*
X018978Y03937D01*
Y038583D02*
X018922Y038659D01*
X018833Y03863D01*
Y038536D01*
X018922Y038507D01*
X018978Y038583D01*
Y037795D02*
X018922Y037871D01*
X018833Y037842D01*
Y037748D01*
X018922Y037719D01*
X018978Y037795D01*
Y037008D02*
X018922Y037084D01*
X018833Y037055D01*
Y036961D01*
X018922Y036932D01*
X018978Y037008D01*
Y03622D02*
X018922Y036297D01*
X018833Y036268D01*
Y036173D01*
X018922Y036144D01*
X018978Y03622D01*
Y035433D02*
X018922Y035509D01*
X018833Y03548D01*
Y035386D01*
X018922Y035357D01*
X018978Y035433D01*
X01819Y041732D02*
X018135Y041808D01*
X018046Y041779D01*
Y041685D01*
X018135Y041656D01*
X01819Y041732D01*
Y040945D02*
X018135Y041021D01*
X018046Y040992D01*
Y040898D01*
X018135Y040869D01*
X01819Y040945D01*
Y040157D02*
X018135Y040234D01*
X018046Y040205D01*
Y04011D01*
X018135Y040081D01*
X01819Y040157D01*
Y03937D02*
X018135Y039446D01*
X018046Y039417D01*
Y039323D01*
X018135Y039294D01*
X01819Y03937D01*
Y038583D02*
X018135Y038659D01*
X018046Y03863D01*
Y038536D01*
X018135Y038507D01*
X01819Y038583D01*
Y037795D02*
X018135Y037871D01*
X018046Y037842D01*
Y037748D01*
X018135Y037719D01*
X01819Y037795D01*
Y037008D02*
X018135Y037084D01*
X018046Y037055D01*
Y036961D01*
X018135Y036932D01*
X01819Y037008D01*
Y03622D02*
X018135Y036297D01*
X018046Y036268D01*
Y036173D01*
X018135Y036144D01*
X01819Y03622D01*
Y035433D02*
X018135Y035509D01*
X018046Y03548D01*
Y035386D01*
X018135Y035357D01*
X01819Y035433D01*
X017403Y041732D02*
X017348Y041808D01*
X017258Y041779D01*
Y041685D01*
X017348Y041656D01*
X017403Y041732D01*
Y040945D02*
X017348Y041021D01*
X017258Y040992D01*
Y040898D01*
X017348Y040869D01*
X017403Y040945D01*
Y040157D02*
X017348Y040234D01*
X017258Y040205D01*
Y04011D01*
X017348Y040081D01*
X017403Y040157D01*
Y03937D02*
X017348Y039446D01*
X017258Y039417D01*
Y039323D01*
X017348Y039294D01*
X017403Y03937D01*
Y038583D02*
X017348Y038659D01*
X017258Y03863D01*
Y038536D01*
X017348Y038507D01*
X017403Y038583D01*
Y037795D02*
X017348Y037871D01*
X017258Y037842D01*
Y037748D01*
X017348Y037719D01*
X017403Y037795D01*
Y037008D02*
X017348Y037084D01*
X017258Y037055D01*
Y036961D01*
X017348Y036932D01*
X017403Y037008D01*
Y03622D02*
X017348Y036297D01*
X017258Y036268D01*
Y036173D01*
X017348Y036144D01*
X017403Y03622D01*
Y035433D02*
X017348Y035509D01*
X017258Y03548D01*
Y035386D01*
X017348Y035357D01*
X017403Y035433D01*
Y034646D02*
X017348Y034722D01*
X017258Y034693D01*
Y034599D01*
X017348Y03457D01*
X017403Y034646D01*
Y033858D02*
X017348Y033934D01*
X017258Y033905D01*
Y033811D01*
X017348Y033782D01*
X017403Y033858D01*
M02*
