G04 Layer_Color=16711935*
%FSTAX24Y24*%
%MOIN*%
G70*
G01*
G75*
%ADD36C,0.0671*%
%ADD37R,0.0671X0.0671*%
%ADD38R,0.0671X0.0671*%
%ADD39C,0.0277*%
%ADD40C,0.0580*%
D36*
X02031Y02297D02*
D03*
X02131D02*
D03*
X02231D02*
D03*
X02331D02*
D03*
X02431D02*
D03*
X03238Y024706D02*
D03*
Y025706D02*
D03*
Y026706D02*
D03*
Y027706D02*
D03*
Y028706D02*
D03*
Y029706D02*
D03*
Y030706D02*
D03*
Y031706D02*
D03*
Y032706D02*
D03*
Y033706D02*
D03*
Y034706D02*
D03*
X01838Y024706D02*
D03*
Y025706D02*
D03*
Y026706D02*
D03*
Y027706D02*
D03*
Y028706D02*
D03*
Y029706D02*
D03*
Y030706D02*
D03*
Y031706D02*
D03*
Y032706D02*
D03*
Y033706D02*
D03*
Y034706D02*
D03*
X02892Y02297D02*
D03*
X02792D02*
D03*
X02692D02*
D03*
D37*
X02531D02*
D03*
X02992D02*
D03*
D38*
X03238Y023706D02*
D03*
X01838D02*
D03*
D39*
X033071Y041732D02*
D03*
Y040945D02*
D03*
Y040157D02*
D03*
Y03937D02*
D03*
Y038583D02*
D03*
Y037795D02*
D03*
Y037008D02*
D03*
Y03622D02*
D03*
Y035433D02*
D03*
Y034646D02*
D03*
Y033858D02*
D03*
X032283Y041732D02*
D03*
Y040945D02*
D03*
Y040157D02*
D03*
Y03937D02*
D03*
Y038583D02*
D03*
Y037795D02*
D03*
Y037008D02*
D03*
Y03622D02*
D03*
Y035433D02*
D03*
X031496Y041732D02*
D03*
Y040945D02*
D03*
Y040157D02*
D03*
Y03937D02*
D03*
Y038583D02*
D03*
Y037795D02*
D03*
Y037008D02*
D03*
Y03622D02*
D03*
Y035433D02*
D03*
X030709Y041732D02*
D03*
Y040945D02*
D03*
Y040157D02*
D03*
Y03937D02*
D03*
Y038583D02*
D03*
Y037795D02*
D03*
Y037008D02*
D03*
Y03622D02*
D03*
Y035433D02*
D03*
X029921Y041732D02*
D03*
Y040945D02*
D03*
Y03937D02*
D03*
Y038583D02*
D03*
Y037795D02*
D03*
Y037008D02*
D03*
Y03622D02*
D03*
Y035433D02*
D03*
Y034646D02*
D03*
Y033858D02*
D03*
X029134Y041732D02*
D03*
Y040945D02*
D03*
Y03937D02*
D03*
Y038583D02*
D03*
Y037795D02*
D03*
Y03622D02*
D03*
Y035433D02*
D03*
X028346Y041732D02*
D03*
Y040945D02*
D03*
Y040157D02*
D03*
Y03937D02*
D03*
Y038583D02*
D03*
Y037795D02*
D03*
Y03622D02*
D03*
Y035433D02*
D03*
Y034646D02*
D03*
Y033858D02*
D03*
X027559Y041732D02*
D03*
Y040945D02*
D03*
Y040157D02*
D03*
Y03937D02*
D03*
Y038583D02*
D03*
Y037795D02*
D03*
Y03622D02*
D03*
Y035433D02*
D03*
Y034646D02*
D03*
Y033858D02*
D03*
X026772Y041732D02*
D03*
Y040945D02*
D03*
Y040157D02*
D03*
Y03937D02*
D03*
Y038583D02*
D03*
Y037795D02*
D03*
Y03622D02*
D03*
Y034646D02*
D03*
Y033858D02*
D03*
X025984Y041732D02*
D03*
Y040945D02*
D03*
Y040157D02*
D03*
Y03937D02*
D03*
Y038583D02*
D03*
Y037795D02*
D03*
Y037008D02*
D03*
Y034646D02*
D03*
Y033858D02*
D03*
X025197Y041732D02*
D03*
Y040945D02*
D03*
Y040157D02*
D03*
Y03937D02*
D03*
Y038583D02*
D03*
Y037795D02*
D03*
Y037008D02*
D03*
Y03622D02*
D03*
Y034646D02*
D03*
Y033858D02*
D03*
X024409Y041732D02*
D03*
Y040945D02*
D03*
Y040157D02*
D03*
Y03937D02*
D03*
Y038583D02*
D03*
Y037795D02*
D03*
Y037008D02*
D03*
Y03622D02*
D03*
Y034646D02*
D03*
Y033858D02*
D03*
X023622Y041732D02*
D03*
Y040945D02*
D03*
Y040157D02*
D03*
Y03937D02*
D03*
Y038583D02*
D03*
Y037795D02*
D03*
Y037008D02*
D03*
Y03622D02*
D03*
Y035433D02*
D03*
Y034646D02*
D03*
Y033858D02*
D03*
X022835Y041732D02*
D03*
Y040945D02*
D03*
Y040157D02*
D03*
Y03937D02*
D03*
Y038583D02*
D03*
Y037795D02*
D03*
Y037008D02*
D03*
Y03622D02*
D03*
Y035433D02*
D03*
Y034646D02*
D03*
X022047Y041732D02*
D03*
Y040945D02*
D03*
Y040157D02*
D03*
Y03937D02*
D03*
Y038583D02*
D03*
Y037795D02*
D03*
Y037008D02*
D03*
Y03622D02*
D03*
Y035433D02*
D03*
X02126Y041732D02*
D03*
Y040945D02*
D03*
Y040157D02*
D03*
Y03937D02*
D03*
Y038583D02*
D03*
Y037795D02*
D03*
Y037008D02*
D03*
Y03622D02*
D03*
X020472Y041732D02*
D03*
Y040945D02*
D03*
Y040157D02*
D03*
Y03937D02*
D03*
Y038583D02*
D03*
Y037795D02*
D03*
Y037008D02*
D03*
Y03622D02*
D03*
Y035433D02*
D03*
Y033858D02*
D03*
X019685Y041732D02*
D03*
Y040945D02*
D03*
Y040157D02*
D03*
Y03937D02*
D03*
Y038583D02*
D03*
Y037795D02*
D03*
Y037008D02*
D03*
Y03622D02*
D03*
Y035433D02*
D03*
Y033858D02*
D03*
X018898Y041732D02*
D03*
Y040945D02*
D03*
Y040157D02*
D03*
Y03937D02*
D03*
Y038583D02*
D03*
Y037795D02*
D03*
Y037008D02*
D03*
Y03622D02*
D03*
Y035433D02*
D03*
X01811Y041732D02*
D03*
Y040945D02*
D03*
Y040157D02*
D03*
Y03937D02*
D03*
Y038583D02*
D03*
Y037795D02*
D03*
Y037008D02*
D03*
Y03622D02*
D03*
Y035433D02*
D03*
X017323Y041732D02*
D03*
Y040945D02*
D03*
Y040157D02*
D03*
Y03937D02*
D03*
Y038583D02*
D03*
Y037795D02*
D03*
Y037008D02*
D03*
Y03622D02*
D03*
Y035433D02*
D03*
Y034646D02*
D03*
Y033858D02*
D03*
D40*
X03055Y03191D02*
D03*
X02036Y03301D02*
D03*
M02*
