G04 Layer_Physical_Order=1*
G04 Layer_Color=255*
%FSTAX24Y24*%
%MOIN*%
G70*
G01*
G75*
%ADD10C,0.0295*%
%ADD11R,0.0500X0.0550*%
%ADD12R,0.0197X0.0256*%
%ADD13R,0.0197X0.0217*%
%ADD14R,0.0236X0.0591*%
%ADD15R,0.0550X0.0500*%
%ADD16R,0.0600X0.0400*%
%ADD17R,0.0400X0.0600*%
%ADD18C,0.0218*%
%ADD19C,0.0591*%
%ADD20R,0.0591X0.0591*%
%ADD21R,0.0591X0.0591*%
%ADD22C,0.0197*%
%ADD23C,0.0500*%
G36*
X033609Y019734D02*
X017141D01*
Y021706D01*
X0172Y021711D01*
X017202Y021704D01*
X017239Y021649D01*
X017569Y021319D01*
X017624Y021282D01*
X01769Y021269D01*
X018246D01*
Y021165D01*
X018265Y02112D01*
X01831Y021101D01*
X01881D01*
X018855Y02112D01*
X018874Y021165D01*
Y021715D01*
X018855Y02176D01*
X01881Y021779D01*
X01831D01*
X018265Y02176D01*
X018246Y021715D01*
Y021611D01*
X017761D01*
X017531Y021841D01*
Y022378D01*
X017583Y022397D01*
X01759Y022397D01*
X017969Y022019D01*
X018024Y021982D01*
X01809Y021969D01*
X020369D01*
Y021779D01*
X02029D01*
X020245Y02176D01*
X020226Y021715D01*
Y021165D01*
X020245Y02112D01*
X02029Y021101D01*
X02079D01*
X020835Y02112D01*
X020854Y021165D01*
Y021715D01*
X020835Y02176D01*
X02079Y021779D01*
X020711D01*
Y02204D01*
X020698Y022106D01*
X020661Y022161D01*
X020561Y022261D01*
X020506Y022298D01*
X02044Y022311D01*
X018161D01*
X017881Y022591D01*
Y024459D01*
X017957Y024535D01*
X018067D01*
X01807Y024527D01*
X018127Y024453D01*
X018201Y024397D01*
X018288Y024361D01*
X01838Y024349D01*
X018472Y024361D01*
X018559Y024397D01*
X018633Y024453D01*
X01869Y024527D01*
X018693Y024535D01*
X020116D01*
X020182Y024548D01*
X020237Y024585D01*
X021181Y025529D01*
X021786D01*
Y0255D01*
X021803Y02545D01*
X021786Y0254D01*
Y025289D01*
X02215D01*
X022514D01*
Y0254D01*
X022497Y02545D01*
X022514Y0255D01*
Y0259D01*
X022497Y02595D01*
X022514Y026D01*
Y0264D01*
X022497Y02645D01*
X022514Y0265D01*
Y0269D01*
X022497Y02695D01*
X022514Y027D01*
Y0274D01*
X022497Y02745D01*
X022514Y0275D01*
Y0279D01*
X022497Y02795D01*
X022514Y028D01*
Y028111D01*
X02215D01*
X021786D01*
Y028D01*
X021803Y02795D01*
X021786Y0279D01*
Y0275D01*
X021803Y02745D01*
X021786Y0274D01*
X021757Y027371D01*
X020581D01*
X020185Y027767D01*
X020129Y027805D01*
X020064Y027818D01*
X018717D01*
X01869Y027885D01*
X018633Y027959D01*
X018559Y028016D01*
X018472Y028051D01*
X01838Y028064D01*
X018288Y028051D01*
X018201Y028016D01*
X018127Y027959D01*
X01807Y027885D01*
X018035Y027799D01*
X018023Y027706D01*
X018035Y027614D01*
X01807Y027527D01*
X018127Y027453D01*
X018201Y027397D01*
X018288Y027361D01*
X01838Y027349D01*
X018472Y027361D01*
X018559Y027397D01*
X018633Y027453D01*
X018649Y027475D01*
X019993D01*
X020389Y027079D01*
X020444Y027042D01*
X02051Y027029D01*
X021786D01*
Y027D01*
X021803Y02695D01*
X021786Y0269D01*
X021757Y026871D01*
X018695D01*
X01869Y026885D01*
X018633Y026959D01*
X018559Y027016D01*
X018472Y027051D01*
X01838Y027064D01*
X018288Y027051D01*
X018201Y027016D01*
X018127Y026959D01*
X01807Y026885D01*
X018035Y026799D01*
X018023Y026706D01*
X018035Y026614D01*
X01807Y026527D01*
X018127Y026453D01*
X018201Y026397D01*
X018288Y026361D01*
X01838Y026349D01*
X018472Y026361D01*
X018559Y026397D01*
X018633Y026453D01*
X01869Y026527D01*
X01869Y026529D01*
X021786D01*
Y0265D01*
X021803Y02645D01*
X021786Y0264D01*
X021757Y026371D01*
X02057D01*
X020504Y026358D01*
X020449Y026321D01*
X020005Y025878D01*
X018693D01*
X01869Y025885D01*
X018633Y025959D01*
X018559Y026016D01*
X018472Y026051D01*
X01838Y026064D01*
X018288Y026051D01*
X018201Y026016D01*
X018127Y025959D01*
X01807Y025885D01*
X018067Y025878D01*
X017686D01*
X017621Y025865D01*
X017565Y025827D01*
X017239Y025501D01*
X017202Y025446D01*
X0172Y025439D01*
X017141Y025444D01*
Y042461D01*
X033609D01*
Y019734D01*
D02*
G37*
%LPC*%
G36*
X022656Y022881D02*
X022399D01*
Y022624D01*
X022403Y022625D01*
X022489Y02266D01*
X022563Y022717D01*
X02262Y022791D01*
X022655Y022878D01*
X022656Y022881D01*
D02*
G37*
G36*
X022221Y023316D02*
X022218Y023315D01*
X022131Y02328D01*
X022057Y023223D01*
X022Y023149D01*
X021965Y023063D01*
X021964Y023059D01*
X022221D01*
Y023316D01*
D02*
G37*
G36*
X029831Y023329D02*
X029625D01*
X02958Y02331D01*
X029561Y023265D01*
Y023059D01*
X029831D01*
Y023329D01*
D02*
G37*
G36*
X022221Y022881D02*
X021964D01*
X021965Y022878D01*
X022Y022791D01*
X022057Y022717D01*
X022131Y02266D01*
X022218Y022625D01*
X022221Y022624D01*
Y022881D01*
D02*
G37*
G36*
X030279D02*
X030009D01*
Y022611D01*
X030215D01*
X03026Y02263D01*
X030279Y022675D01*
Y022881D01*
D02*
G37*
G36*
X029831D02*
X029561D01*
Y022675D01*
X02958Y02263D01*
X029625Y022611D01*
X029831D01*
Y022881D01*
D02*
G37*
G36*
X022514Y034611D02*
X02215D01*
X021786D01*
Y0345D01*
X021803Y03445D01*
X021786Y0344D01*
Y034D01*
X021803Y03395D01*
X021786Y0339D01*
Y0335D01*
X021803Y03345D01*
X021786Y0334D01*
Y033D01*
X0218Y032966D01*
X021772Y032911D01*
X021509D01*
Y03295D01*
X02149Y032995D01*
X021445Y033014D01*
X021098D01*
X020981Y033131D01*
X020926Y033168D01*
X02086Y033181D01*
X020618D01*
X02058Y03323D01*
X020516Y03328D01*
X020441Y033311D01*
X02036Y033322D01*
X020279Y033311D01*
X020204Y03328D01*
X02014Y03323D01*
X02009Y033166D01*
X020059Y033091D01*
X020048Y03301D01*
X020059Y032929D01*
X02009Y032854D01*
X02014Y03279D01*
X020204Y03274D01*
X020279Y032709D01*
X02036Y032698D01*
X020441Y032709D01*
X020516Y03274D01*
X02058Y03279D01*
X020618Y032839D01*
X020789D01*
X020831Y032797D01*
Y03245D01*
X02085Y032405D01*
X020895Y032386D01*
X021445D01*
X02149Y032405D01*
X021509Y03245D01*
Y032489D01*
X021772D01*
X021799Y032437D01*
X021786Y0324D01*
Y032289D01*
X02215D01*
X022514D01*
Y0324D01*
X022497Y03245D01*
X022514Y0325D01*
Y0329D01*
X022495Y032945D01*
X022495Y032955D01*
X022514Y033D01*
Y033029D01*
X022579D01*
X023589Y032019D01*
Y023491D01*
X02341Y023312D01*
X023403Y023315D01*
X02331Y023327D01*
X023217Y023315D01*
X023131Y02328D01*
X023057Y023223D01*
X023Y023149D01*
X022965Y023063D01*
X022953Y02297D01*
X022965Y022878D01*
X023Y022791D01*
X023057Y022717D01*
X023131Y02266D01*
X023217Y022625D01*
X02331Y022613D01*
X023403Y022625D01*
X023489Y02266D01*
X023563Y022717D01*
X02362Y022791D01*
X023655Y022878D01*
X023667Y02297D01*
X023655Y023063D01*
X023652Y02307D01*
X023881Y023299D01*
X023918Y023354D01*
X023931Y02342D01*
Y03209D01*
X023918Y032156D01*
X023881Y032211D01*
X022771Y033321D01*
X022716Y033358D01*
X02265Y033371D01*
X022514D01*
Y0334D01*
X022497Y03345D01*
X022514Y0335D01*
X022543Y033529D01*
X023039D01*
X024139Y032429D01*
Y023283D01*
X024131Y02328D01*
X024057Y023223D01*
X024Y023149D01*
X023965Y023063D01*
X023953Y02297D01*
X023965Y022878D01*
X024Y022791D01*
X024057Y022717D01*
X024131Y02266D01*
X024218Y022625D01*
X02431Y022613D01*
X024402Y022625D01*
X024489Y02266D01*
X024563Y022717D01*
X02462Y022791D01*
X024655Y022878D01*
X024667Y02297D01*
X024655Y023063D01*
X02462Y023149D01*
X024563Y023223D01*
X024489Y02328D01*
X024481Y023283D01*
Y0325D01*
X024468Y032566D01*
X024431Y032621D01*
X023231Y033821D01*
X023176Y033858D01*
X02311Y033871D01*
X022514D01*
Y0339D01*
X022497Y03395D01*
X022514Y034D01*
Y0344D01*
X022497Y03445D01*
X022514Y0345D01*
Y034611D01*
D02*
G37*
G36*
X02031Y023327D02*
X020217Y023315D01*
X020131Y02328D01*
X020057Y023223D01*
X02Y023149D01*
X019965Y023063D01*
X019953Y02297D01*
X019965Y022878D01*
X02Y022791D01*
X020057Y022717D01*
X020131Y02266D01*
X020217Y022625D01*
X02031Y022613D01*
X020403Y022625D01*
X020489Y02266D01*
X020563Y022717D01*
X02062Y022791D01*
X020655Y022878D01*
X020667Y02297D01*
X020655Y023063D01*
X02062Y023149D01*
X020563Y023223D01*
X020489Y02328D01*
X020403Y023315D01*
X02031Y023327D01*
D02*
G37*
G36*
X032739Y023617D02*
X032469D01*
Y023347D01*
X032675D01*
X03272Y023366D01*
X032739Y023411D01*
Y023617D01*
D02*
G37*
G36*
X032291D02*
X032021D01*
Y023411D01*
X03204Y023366D01*
X032085Y023347D01*
X032291D01*
Y023617D01*
D02*
G37*
G36*
Y024065D02*
X032085D01*
X03204Y024047D01*
X032021Y024001D01*
Y023796D01*
X032291D01*
Y024065D01*
D02*
G37*
G36*
X018291D02*
X018085D01*
X01804Y024047D01*
X018021Y024001D01*
Y023796D01*
X018291D01*
Y024065D01*
D02*
G37*
G36*
X030215Y023329D02*
X030009D01*
Y023059D01*
X030279D01*
Y023265D01*
X03026Y02331D01*
X030215Y023329D01*
D02*
G37*
G36*
X022399Y023316D02*
Y023059D01*
X022656D01*
X022655Y023063D01*
X02262Y023149D01*
X022563Y023223D01*
X022489Y02328D01*
X022403Y023315D01*
X022399Y023316D01*
D02*
G37*
G36*
X018739Y023617D02*
X018469D01*
Y023347D01*
X018675D01*
X01872Y023366D01*
X018739Y023411D01*
Y023617D01*
D02*
G37*
G36*
X018291D02*
X018021D01*
Y023411D01*
X01804Y023366D01*
X018085Y023347D01*
X018291D01*
Y023617D01*
D02*
G37*
G36*
X02169Y021779D02*
X02119D01*
X021145Y02176D01*
X021126Y021715D01*
Y021165D01*
X021145Y02112D01*
X02119Y021101D01*
X021269D01*
Y020683D01*
X02118D01*
X021135Y020664D01*
X021116Y020619D01*
Y020069D01*
X021135Y020024D01*
X02118Y020005D01*
X02168D01*
X021725Y020024D01*
X021744Y020069D01*
Y020619D01*
X021725Y020664D01*
X02168Y020683D01*
X021611D01*
Y021101D01*
X02169D01*
X021735Y02112D01*
X021754Y021165D01*
Y021715D01*
X021735Y02176D01*
X02169Y021779D01*
D02*
G37*
G36*
X020844Y020255D02*
X020619D01*
Y020005D01*
X02078D01*
X020825Y020024D01*
X020844Y020069D01*
Y020255D01*
D02*
G37*
G36*
X018461Y020683D02*
X0183D01*
X018255Y020664D01*
X018236Y020619D01*
Y020434D01*
X018461D01*
Y020683D01*
D02*
G37*
G36*
X03159Y021769D02*
X03109D01*
X031045Y02175D01*
X031026Y021705D01*
Y021155D01*
X031045Y02111D01*
X03109Y021091D01*
X031169D01*
Y020693D01*
X0311D01*
X031055Y020674D01*
X031036Y020629D01*
Y020079D01*
X031055Y020034D01*
X0311Y020015D01*
X0316D01*
X031645Y020034D01*
X031664Y020079D01*
Y020629D01*
X031645Y020674D01*
X0316Y020693D01*
X031511D01*
Y021091D01*
X03159D01*
X031635Y02111D01*
X031654Y021155D01*
Y021705D01*
X031635Y02175D01*
X03159Y021769D01*
D02*
G37*
G36*
X018864Y020255D02*
X018639D01*
Y020005D01*
X0188D01*
X018845Y020024D01*
X018864Y020069D01*
Y020255D01*
D02*
G37*
G36*
X018461D02*
X018236D01*
Y020069D01*
X018255Y020024D01*
X0183Y020005D01*
X018461D01*
Y020255D01*
D02*
G37*
G36*
X020441D02*
X020216D01*
Y020069D01*
X020235Y020024D01*
X02028Y020005D01*
X020441D01*
Y020255D01*
D02*
G37*
G36*
X01971Y021779D02*
X01921D01*
X019165Y02176D01*
X019146Y021715D01*
Y021165D01*
X019165Y02112D01*
X01921Y021101D01*
X019289D01*
Y020683D01*
X0192D01*
X019155Y020664D01*
X019136Y020619D01*
Y020069D01*
X019155Y020024D01*
X0192Y020005D01*
X0197D01*
X019745Y020024D01*
X019764Y020069D01*
Y020619D01*
X019745Y020664D01*
X0197Y020683D01*
X019631D01*
Y021101D01*
X01971D01*
X019755Y02112D01*
X019774Y021165D01*
Y021715D01*
X019755Y02176D01*
X01971Y021779D01*
D02*
G37*
G36*
X020441Y020683D02*
X02028D01*
X020235Y020664D01*
X020216Y020619D01*
Y020434D01*
X020441D01*
Y020683D01*
D02*
G37*
G36*
X03069Y021769D02*
X030529D01*
Y021519D01*
X030754D01*
Y021705D01*
X030735Y02175D01*
X03069Y021769D01*
D02*
G37*
G36*
X030351D02*
X03019D01*
X030145Y02175D01*
X030126Y021705D01*
Y021519D01*
X030351D01*
Y021769D01*
D02*
G37*
G36*
X025605Y023329D02*
X025015D01*
X02497Y02331D01*
X024951Y023265D01*
Y022675D01*
X02497Y02263D01*
X025015Y022611D01*
X025605D01*
X02565Y02263D01*
X025669Y022675D01*
Y023265D01*
X02565Y02331D01*
X025605Y023329D01*
D02*
G37*
G36*
X02915Y0347D02*
D01*
Y034611D01*
X028786D01*
Y0345D01*
X028803Y03445D01*
X028786Y0344D01*
Y034D01*
X028803Y03395D01*
X028786Y0339D01*
Y0335D01*
X028803Y03345D01*
X028786Y0334D01*
Y033D01*
X028803Y03295D01*
X028786Y0329D01*
Y0325D01*
X028805Y032455D01*
X028805Y032445D01*
X028786Y0324D01*
Y032D01*
X028803Y03195D01*
X028786Y0319D01*
Y0315D01*
X028805Y031455D01*
X028805Y031445D01*
X028786Y0314D01*
Y031D01*
X0288Y030966D01*
X028772Y030911D01*
X02749D01*
X027409Y030895D01*
X027341Y030849D01*
X026771Y030279D01*
X026725Y030211D01*
X026709Y03013D01*
Y023255D01*
X026667Y023223D01*
X02661Y023149D01*
X026575Y023063D01*
X026563Y02297D01*
X026575Y022878D01*
X02661Y022791D01*
X026667Y022717D01*
X026709Y022685D01*
Y022311D01*
X021657D01*
X021521Y022447D01*
Y022685D01*
X021563Y022717D01*
X02162Y022791D01*
X021655Y022878D01*
X021667Y02297D01*
X021655Y023063D01*
X02162Y023149D01*
X021563Y023223D01*
X021521Y023255D01*
Y023513D01*
X021737Y023729D01*
X02262D01*
X022701Y023745D01*
X022769Y023791D01*
X023379Y024401D01*
X023425Y024469D01*
X023441Y02455D01*
Y03126D01*
X023425Y031341D01*
X023379Y031409D01*
X022939Y031849D01*
X022871Y031895D01*
X02279Y031911D01*
X022528D01*
X0225Y031966D01*
X022514Y032D01*
Y032111D01*
X02215D01*
X021786D01*
Y032D01*
X021805Y031955D01*
X021805Y031945D01*
X021786Y0319D01*
Y0315D01*
X021803Y03145D01*
X021786Y0314D01*
X021757Y031371D01*
X021451D01*
X018991Y033831D01*
X018936Y033868D01*
X01887Y033881D01*
X018691D01*
X01869Y033885D01*
X018633Y033959D01*
X018559Y034016D01*
X018472Y034051D01*
X01838Y034064D01*
X018288Y034051D01*
X018201Y034016D01*
X018127Y033959D01*
X01807Y033885D01*
X018035Y033799D01*
X018023Y033706D01*
X018035Y033614D01*
X01807Y033527D01*
X018127Y033453D01*
X018201Y033397D01*
X018288Y033361D01*
X01838Y033349D01*
X018472Y033361D01*
X018559Y033397D01*
X018633Y033453D01*
X01869Y033527D01*
X018694Y033539D01*
X018799D01*
X021259Y031079D01*
X021314Y031042D01*
X02138Y031029D01*
X021786D01*
Y031D01*
X021803Y03095D01*
X021786Y0309D01*
X021757Y030871D01*
X021131D01*
X019171Y032831D01*
X019116Y032868D01*
X01905Y032881D01*
X018691D01*
X01869Y032885D01*
X018633Y032959D01*
X018559Y033016D01*
X018472Y033051D01*
X01838Y033064D01*
X018288Y033051D01*
X018201Y033016D01*
X018127Y032959D01*
X01807Y032885D01*
X018035Y032799D01*
X018023Y032706D01*
X018035Y032614D01*
X01807Y032527D01*
X018127Y032453D01*
X018201Y032397D01*
X018288Y032361D01*
X01838Y032349D01*
X018472Y032361D01*
X018559Y032397D01*
X018633Y032453D01*
X01869Y032527D01*
X018694Y032539D01*
X018979D01*
X020939Y030579D01*
X020994Y030542D01*
X02106Y030529D01*
X021786D01*
Y0305D01*
X021803Y03045D01*
X021786Y0304D01*
X021757Y030371D01*
X020911D01*
X019451Y031831D01*
X019396Y031868D01*
X01933Y031881D01*
X018691D01*
X01869Y031885D01*
X018633Y031959D01*
X018559Y032016D01*
X018472Y032051D01*
X01838Y032064D01*
X018288Y032051D01*
X018201Y032016D01*
X018127Y031959D01*
X01807Y031885D01*
X018035Y031799D01*
X018023Y031706D01*
X018035Y031614D01*
X01807Y031527D01*
X018127Y031453D01*
X018201Y031397D01*
X018288Y031361D01*
X01838Y031349D01*
X018472Y031361D01*
X018559Y031397D01*
X018633Y031453D01*
X01869Y031527D01*
X018694Y031539D01*
X019259D01*
X020719Y030079D01*
X020774Y030042D01*
X02084Y030029D01*
X021786D01*
Y03D01*
X021803Y02995D01*
X021786Y0299D01*
X021757Y029871D01*
X020381D01*
X019421Y030831D01*
X019366Y030868D01*
X0193Y030881D01*
X018691D01*
X01869Y030885D01*
X018633Y030959D01*
X018559Y031016D01*
X018472Y031051D01*
X01838Y031064D01*
X018288Y031051D01*
X018201Y031016D01*
X018127Y030959D01*
X01807Y030885D01*
X018035Y030799D01*
X018023Y030706D01*
X018035Y030614D01*
X01807Y030527D01*
X018127Y030453D01*
X018201Y030397D01*
X018288Y030361D01*
X01838Y030349D01*
X018472Y030361D01*
X018559Y030397D01*
X018633Y030453D01*
X01869Y030527D01*
X018694Y030539D01*
X019229D01*
X020189Y029579D01*
X020244Y029542D01*
X02031Y029529D01*
X021786D01*
Y0295D01*
X021803Y02945D01*
X021786Y0294D01*
X021757Y029371D01*
X019951D01*
X019491Y029831D01*
X019436Y029868D01*
X01937Y029881D01*
X018691D01*
X01869Y029885D01*
X018633Y029959D01*
X018559Y030016D01*
X018472Y030051D01*
X01838Y030064D01*
X018288Y030051D01*
X018201Y030016D01*
X018127Y029959D01*
X01807Y029885D01*
X018035Y029799D01*
X018023Y029706D01*
X018035Y029614D01*
X01807Y029527D01*
X018127Y029453D01*
X018201Y029397D01*
X018288Y029361D01*
X01838Y029349D01*
X018472Y029361D01*
X018559Y029397D01*
X018633Y029453D01*
X01869Y029527D01*
X018694Y029539D01*
X019299D01*
X019759Y029079D01*
X019814Y029042D01*
X01988Y029029D01*
X021786D01*
Y029D01*
X021803Y02895D01*
X021786Y0289D01*
X021757Y028871D01*
X018695D01*
X01869Y028885D01*
X018633Y028959D01*
X018559Y029016D01*
X018472Y029051D01*
X01838Y029064D01*
X018288Y029051D01*
X018201Y029016D01*
X018127Y028959D01*
X01807Y028885D01*
X018035Y028799D01*
X018023Y028706D01*
X018035Y028614D01*
X01807Y028527D01*
X018127Y028453D01*
X018201Y028397D01*
X018288Y028361D01*
X01838Y028349D01*
X018472Y028361D01*
X018559Y028397D01*
X018633Y028453D01*
X01869Y028527D01*
X01869Y028529D01*
X021786D01*
Y0285D01*
X021803Y02845D01*
X021786Y0284D01*
Y028289D01*
X02215D01*
X022514D01*
Y0284D01*
X022497Y02845D01*
X022514Y0285D01*
Y0289D01*
X022497Y02895D01*
X022514Y029D01*
Y0294D01*
X022497Y02945D01*
X022514Y0295D01*
Y0299D01*
X022497Y02995D01*
X022514Y03D01*
Y0304D01*
X022497Y03045D01*
X022514Y0305D01*
Y0309D01*
X022497Y03095D01*
X022514Y031D01*
Y0314D01*
X022501Y031437D01*
X022528Y031489D01*
X022703D01*
X023019Y031173D01*
Y024637D01*
X022533Y024151D01*
X02165D01*
X021569Y024135D01*
X021501Y024089D01*
X021161Y023749D01*
X021115Y023681D01*
X021099Y0236D01*
Y023255D01*
X021057Y023223D01*
X021Y023149D01*
X020965Y023063D01*
X020953Y02297D01*
X020965Y022878D01*
X021Y022791D01*
X021057Y022717D01*
X021099Y022685D01*
Y02236D01*
X021115Y022279D01*
X021161Y022211D01*
X021421Y021951D01*
X021489Y021905D01*
X02157Y021889D01*
X026833D01*
X028517Y020205D01*
X028585Y02016D01*
X028666Y020143D01*
X030136D01*
Y020079D01*
X030155Y020034D01*
X0302Y020015D01*
X0307D01*
X030745Y020034D01*
X030764Y020079D01*
Y020629D01*
X030745Y020674D01*
X0307Y020693D01*
X0302D01*
X030155Y020674D01*
X030136Y020629D01*
Y020565D01*
X028753D01*
X027131Y022187D01*
Y022685D01*
X027173Y022717D01*
X02723Y022791D01*
X027265Y022878D01*
X027277Y02297D01*
X027265Y023063D01*
X02723Y023149D01*
X027173Y023223D01*
X027131Y023255D01*
Y030043D01*
X027577Y030489D01*
X028772D01*
X0288Y030434D01*
X028786Y0304D01*
Y030289D01*
X02915D01*
X029514D01*
Y0304D01*
X029506Y03042D01*
X029538Y030479D01*
X02964D01*
X029721Y030495D01*
X029789Y030541D01*
X030181Y030933D01*
X03022Y030925D01*
X030265Y030906D01*
X030815D01*
X03086Y030925D01*
X030879Y03097D01*
Y03147D01*
X03086Y031515D01*
X030815Y031534D01*
X030751D01*
Y031674D01*
X03077Y03169D01*
X03082Y031754D01*
X030851Y031829D01*
X030862Y03191D01*
X030851Y031991D01*
X03082Y032066D01*
X03077Y03213D01*
X030706Y03218D01*
X030631Y032211D01*
X03055Y032222D01*
X030469Y032211D01*
X030394Y03218D01*
X03033Y03213D01*
X03032Y032119D01*
X030261Y032139D01*
Y032349D01*
X030447Y032535D01*
X032067D01*
X03207Y032527D01*
X032127Y032453D01*
X032201Y032397D01*
X032287Y032361D01*
X03238Y032349D01*
X032473Y032361D01*
X032559Y032397D01*
X032633Y032453D01*
X03269Y032527D01*
X032725Y032614D01*
X032737Y032706D01*
X032725Y032799D01*
X03269Y032885D01*
X032633Y032959D01*
X032559Y033016D01*
X032473Y033051D01*
X03238Y033064D01*
X032287Y033051D01*
X032201Y033016D01*
X032127Y032959D01*
X03207Y032885D01*
X032067Y032878D01*
X030376D01*
X030311Y032864D01*
X030255Y032827D01*
X02999Y032563D01*
X029931Y032587D01*
Y032869D01*
X030597Y033535D01*
X032067D01*
X03207Y033527D01*
X032127Y033453D01*
X032201Y033397D01*
X032287Y033361D01*
X03238Y033349D01*
X032473Y033361D01*
X032559Y033397D01*
X032633Y033453D01*
X03269Y033527D01*
X032725Y033614D01*
X032737Y033706D01*
X032725Y033799D01*
X03269Y033885D01*
X032633Y033959D01*
X032559Y034016D01*
X032473Y034051D01*
X03238Y034064D01*
X032287Y034051D01*
X032201Y034016D01*
X032127Y033959D01*
X03207Y033885D01*
X032067Y033878D01*
X030526D01*
X030461Y033865D01*
X030405Y033827D01*
X029639Y033061D01*
X029602Y033006D01*
X029589Y03294D01*
Y031999D01*
X029567Y031984D01*
X029523Y031988D01*
X029514Y032D01*
Y0324D01*
X029495Y032445D01*
X029495Y032455D01*
X029514Y0325D01*
Y0329D01*
X029497Y03295D01*
X029514Y033D01*
Y0334D01*
X029497Y03345D01*
X029514Y0335D01*
Y0339D01*
X029497Y03395D01*
X029514Y034D01*
Y0344D01*
X029497Y03445D01*
X029514Y0345D01*
Y034611D01*
X02915D01*
Y0347D01*
D02*
G37*
G36*
X0188Y020683D02*
X018639D01*
Y020434D01*
X018864D01*
Y020619D01*
X018845Y020664D01*
X0188Y020683D01*
D02*
G37*
G36*
X02078D02*
X020619D01*
Y020434D01*
X020844D01*
Y020619D01*
X020825Y020664D01*
X02078Y020683D01*
D02*
G37*
G36*
X030754Y021341D02*
X030529D01*
Y021091D01*
X03069D01*
X030735Y02111D01*
X030754Y021155D01*
Y021341D01*
D02*
G37*
G36*
X030351D02*
X030126D01*
Y021155D01*
X030145Y02111D01*
X03019Y021091D01*
X030351D01*
Y021341D01*
D02*
G37*
G36*
X018675Y024065D02*
X018469D01*
Y023796D01*
X018739D01*
Y024001D01*
X01872Y024047D01*
X018675Y024065D01*
D02*
G37*
G36*
X021489Y035471D02*
X021239D01*
Y035246D01*
X021425D01*
X02147Y035265D01*
X021489Y03531D01*
Y035471D01*
D02*
G37*
G36*
X021061D02*
X020811D01*
Y03531D01*
X02083Y035265D01*
X020875Y035246D01*
X021061D01*
Y035471D01*
D02*
G37*
G36*
X02735Y035564D02*
X027239D01*
Y035289D01*
X027414D01*
Y0355D01*
X027395Y035545D01*
X02735Y035564D01*
D02*
G37*
G36*
X024061D02*
X02395D01*
X023905Y035545D01*
X023886Y0355D01*
Y035289D01*
X024061D01*
Y035564D01*
D02*
G37*
G36*
X02685D02*
X026739D01*
Y0352D01*
Y034836D01*
X02685D01*
X0269Y034853D01*
X02695Y034836D01*
X027061D01*
Y0352D01*
Y035564D01*
X02695D01*
X0269Y035547D01*
X02685Y035564D01*
D02*
G37*
G36*
X02435D02*
X024239D01*
Y0352D01*
Y034836D01*
X02435D01*
X0244Y034853D01*
X02445Y034836D01*
X024561D01*
Y0352D01*
Y035564D01*
X02445D01*
X0244Y035547D01*
X02435Y035564D01*
D02*
G37*
G36*
X024061Y035111D02*
X023886D01*
Y0349D01*
X023905Y034855D01*
X02395Y034836D01*
X024061D01*
Y035111D01*
D02*
G37*
G36*
X027414D02*
X027239D01*
Y034836D01*
X02735D01*
X027395Y034855D01*
X027414Y0349D01*
Y035111D01*
D02*
G37*
G36*
X029107Y040609D02*
X029078D01*
X029033Y04059D01*
X029014Y040545D01*
Y040339D01*
X029107D01*
Y040609D01*
D02*
G37*
G36*
X030166Y040161D02*
X030073D01*
Y039891D01*
X030102D01*
X030147Y03991D01*
X030166Y039955D01*
Y040161D01*
D02*
G37*
G36*
X029688Y040826D02*
X029679D01*
Y040654D01*
X029501D01*
Y040826D01*
X029492D01*
X029446Y040807D01*
X029428Y040762D01*
Y040581D01*
X029369Y040569D01*
X02936Y04059D01*
X029314Y040609D01*
X029286D01*
Y04025D01*
Y039891D01*
X029314D01*
X029319Y039893D01*
X029376Y039853D01*
Y037527D01*
X029379Y037515D01*
X02936Y037376D01*
X029302Y037236D01*
X02921Y037116D01*
X02909Y037024D01*
X02895Y036966D01*
X028812Y036948D01*
X0288Y03695D01*
X026937D01*
Y036951D01*
X026743Y036932D01*
X026555Y036875D01*
X026382Y036783D01*
X026231Y036658D01*
X026107Y036507D01*
X026015Y036334D01*
X025958Y036147D01*
X025938Y035952D01*
X025939D01*
Y035578D01*
X025887Y035551D01*
X02585Y035564D01*
X025739D01*
Y0352D01*
Y034836D01*
X02585D01*
X0259Y034853D01*
X02595Y034836D01*
X02635D01*
X0264Y034853D01*
X02645Y034836D01*
X026561D01*
Y0352D01*
Y035564D01*
X02645D01*
X026413Y035551D01*
X026361Y035578D01*
Y035952D01*
X026358Y035964D01*
X026377Y036102D01*
X026435Y036242D01*
X026527Y036363D01*
X026647Y036455D01*
X026787Y036513D01*
X026925Y036531D01*
X026937Y036529D01*
X0288D01*
X0288Y036529D01*
Y036528D01*
X028994Y036547D01*
X029182Y036604D01*
X029355Y036696D01*
X029506Y03682D01*
X02963Y036972D01*
X029722Y037145D01*
X029779Y037332D01*
X029799Y037527D01*
X029798D01*
Y039855D01*
X029854Y039895D01*
X029855Y039895D01*
X029866Y039891D01*
X029894D01*
Y04025D01*
Y040609D01*
X029866D01*
X02982Y04059D01*
X029811Y040569D01*
X029752Y040581D01*
Y040762D01*
X029734Y040807D01*
X029688Y040826D01*
D02*
G37*
G36*
X030102Y040609D02*
X030073D01*
Y040339D01*
X030166D01*
Y040545D01*
X030147Y04059D01*
X030102Y040609D01*
D02*
G37*
G36*
X021061Y035874D02*
X020875D01*
X02083Y035855D01*
X020811Y03581D01*
Y035649D01*
X021061D01*
Y035874D01*
D02*
G37*
G36*
X02535Y035564D02*
X02495D01*
X0249Y035547D01*
X02485Y035564D01*
X024739D01*
Y0352D01*
Y034836D01*
X02485D01*
X0249Y034853D01*
X02495Y034836D01*
X02535D01*
X0254Y034853D01*
X02545Y034836D01*
X025561D01*
Y0352D01*
Y035564D01*
X02545D01*
X0254Y035547D01*
X02535Y035564D01*
D02*
G37*
G36*
X029107Y040161D02*
X029014D01*
Y039955D01*
X029033Y03991D01*
X029078Y039891D01*
X029107D01*
Y040161D01*
D02*
G37*
G36*
X021425Y035874D02*
X021239D01*
Y035649D01*
X021489D01*
Y03581D01*
X02147Y035855D01*
X021425Y035874D01*
D02*
G37*
G36*
X02945Y034964D02*
X029239D01*
Y034789D01*
X029514D01*
Y0349D01*
X029495Y034945D01*
X02945Y034964D01*
D02*
G37*
G36*
X03238Y030064D02*
X032287Y030051D01*
X032201Y030016D01*
X032127Y029959D01*
X03207Y029885D01*
X032067Y029878D01*
X031926D01*
X031861Y029864D01*
X031805Y029827D01*
X030349Y028371D01*
X029514D01*
Y0284D01*
X029497Y02845D01*
X029514Y0285D01*
Y028611D01*
X02915D01*
X028786D01*
Y0285D01*
X028803Y02845D01*
X028786Y0284D01*
X028757Y028371D01*
X02823D01*
X028164Y028358D01*
X028109Y028321D01*
X027799Y028011D01*
X027762Y027956D01*
X027749Y02789D01*
Y023283D01*
X027741Y02328D01*
X027667Y023223D01*
X02761Y023149D01*
X027575Y023063D01*
X027563Y02297D01*
X027575Y022878D01*
X02761Y022791D01*
X027667Y022717D01*
X027741Y02266D01*
X027827Y022625D01*
X02792Y022613D01*
X028012Y022625D01*
X028099Y02266D01*
X028173Y022717D01*
X02823Y022791D01*
X028265Y022878D01*
X028277Y02297D01*
X028265Y023063D01*
X02823Y023149D01*
X028173Y023223D01*
X028099Y02328D01*
X028091Y023283D01*
Y027819D01*
X028301Y028029D01*
X028786D01*
Y028D01*
X028803Y02795D01*
X028786Y0279D01*
X028757Y027871D01*
X02857D01*
X028504Y027858D01*
X028449Y027821D01*
X028219Y027591D01*
X028182Y027536D01*
X028169Y02747D01*
Y02355D01*
X028182Y023484D01*
X028219Y023429D01*
X028578Y02307D01*
X028575Y023063D01*
X028563Y02297D01*
X028575Y022878D01*
X02861Y022791D01*
X028667Y022717D01*
X028741Y02266D01*
X028828Y022625D01*
X02892Y022613D01*
X029012Y022625D01*
X029099Y02266D01*
X029173Y022717D01*
X02923Y022791D01*
X029265Y022878D01*
X029277Y02297D01*
X029265Y023063D01*
X02923Y023149D01*
X029173Y023223D01*
X029099Y02328D01*
X029012Y023315D01*
X02892Y023327D01*
X028828Y023315D01*
X02882Y023312D01*
X028511Y023621D01*
Y027399D01*
X028641Y027529D01*
X028786D01*
Y0275D01*
X028803Y02745D01*
X028786Y0274D01*
Y027D01*
X028803Y02695D01*
X028786Y0269D01*
Y0265D01*
X028803Y02645D01*
X028786Y0264D01*
Y026D01*
X028803Y02595D01*
X028786Y0259D01*
Y0255D01*
X028803Y02545D01*
X028786Y0254D01*
Y025289D01*
X02915D01*
X029514D01*
Y0254D01*
X029497Y02545D01*
X029514Y0255D01*
X029543Y025529D01*
X030349D01*
X031293Y024585D01*
X031348Y024548D01*
X031414Y024535D01*
X032067D01*
X03207Y024527D01*
X032127Y024453D01*
X032201Y024397D01*
X032287Y024361D01*
X03238Y024349D01*
X032473Y024361D01*
X032559Y024397D01*
X032633Y024453D01*
X03269Y024527D01*
X032725Y024614D01*
X032737Y024706D01*
X032725Y024799D01*
X03269Y024885D01*
X032633Y024959D01*
X032559Y025016D01*
X032473Y025051D01*
X03238Y025064D01*
X032287Y025051D01*
X032201Y025016D01*
X032127Y024959D01*
X03207Y024885D01*
X032067Y024878D01*
X031485D01*
X030541Y025821D01*
X030486Y025858D01*
X03042Y025871D01*
X029514D01*
Y0259D01*
X029497Y02595D01*
X029514Y026D01*
X029543Y026029D01*
X030849D01*
X031293Y025585D01*
X031348Y025548D01*
X031414Y025535D01*
X032067D01*
X03207Y025527D01*
X032127Y025453D01*
X032201Y025397D01*
X032287Y025361D01*
X03238Y025349D01*
X032473Y025361D01*
X032559Y025397D01*
X032633Y025453D01*
X03269Y025527D01*
X032725Y025614D01*
X032737Y025706D01*
X032725Y025799D01*
X03269Y025885D01*
X032633Y025959D01*
X032559Y026016D01*
X032473Y026051D01*
X03238Y026064D01*
X032287Y026051D01*
X032201Y026016D01*
X032127Y025959D01*
X03207Y025885D01*
X032067Y025878D01*
X031485D01*
X031041Y026321D01*
X030986Y026358D01*
X03092Y026371D01*
X029514D01*
Y0264D01*
X029497Y02645D01*
X029514Y0265D01*
X029549Y026535D01*
X032067D01*
X03207Y026527D01*
X032127Y026453D01*
X032201Y026397D01*
X032287Y026361D01*
X03238Y026349D01*
X032473Y026361D01*
X032559Y026397D01*
X032633Y026453D01*
X03269Y026527D01*
X032725Y026614D01*
X032737Y026706D01*
X032725Y026799D01*
X03269Y026885D01*
X032633Y026959D01*
X032559Y027016D01*
X032473Y027051D01*
X03238Y027064D01*
X032287Y027051D01*
X032201Y027016D01*
X032127Y026959D01*
X03207Y026885D01*
X032067Y026878D01*
X029514D01*
Y0269D01*
X029497Y02695D01*
X029514Y027D01*
X029543Y027029D01*
X03098D01*
X031046Y027042D01*
X031101Y027079D01*
X031557Y027535D01*
X032067D01*
X03207Y027527D01*
X032127Y027453D01*
X032201Y027397D01*
X032287Y027361D01*
X03238Y027349D01*
X032473Y027361D01*
X032559Y027397D01*
X032633Y027453D01*
X03269Y027527D01*
X032725Y027614D01*
X032737Y027706D01*
X032725Y027799D01*
X03269Y027885D01*
X032633Y027959D01*
X032559Y028016D01*
X032473Y028051D01*
X03238Y028064D01*
X032287Y028051D01*
X032201Y028016D01*
X032127Y027959D01*
X03207Y027885D01*
X032067Y027878D01*
X031486D01*
X031421Y027864D01*
X031365Y027827D01*
X030909Y027371D01*
X029514D01*
Y0274D01*
X029497Y02745D01*
X029514Y0275D01*
X029543Y027529D01*
X03076D01*
X030826Y027542D01*
X030881Y027579D01*
X031837Y028535D01*
X032067D01*
X03207Y028527D01*
X032127Y028453D01*
X032201Y028397D01*
X032287Y028361D01*
X03238Y028349D01*
X032473Y028361D01*
X032559Y028397D01*
X032633Y028453D01*
X03269Y028527D01*
X032725Y028614D01*
X032737Y028706D01*
X032725Y028799D01*
X03269Y028885D01*
X032633Y028959D01*
X032559Y029016D01*
X032473Y029051D01*
X03238Y029064D01*
X032287Y029051D01*
X032201Y029016D01*
X032127Y028959D01*
X03207Y028885D01*
X032067Y028878D01*
X031766D01*
X031701Y028865D01*
X031645Y028827D01*
X030689Y027871D01*
X029514D01*
Y0279D01*
X029497Y02795D01*
X029514Y028D01*
X029543Y028029D01*
X03042D01*
X030486Y028042D01*
X030541Y028079D01*
X031997Y029535D01*
X032067D01*
X03207Y029527D01*
X032127Y029453D01*
X032201Y029397D01*
X032287Y029361D01*
X03238Y029349D01*
X032473Y029361D01*
X032559Y029397D01*
X032633Y029453D01*
X03269Y029527D01*
X032725Y029614D01*
X032737Y029706D01*
X032725Y029799D01*
X03269Y029885D01*
X032633Y029959D01*
X032559Y030016D01*
X032473Y030051D01*
X03238Y030064D01*
D02*
G37*
G36*
X029514Y025111D02*
X029239D01*
Y024936D01*
X02945D01*
X029495Y024955D01*
X029514Y025D01*
Y025111D01*
D02*
G37*
G36*
X030879Y030231D02*
X030629D01*
Y030006D01*
X030815D01*
X03086Y030025D01*
X030879Y03007D01*
Y030231D01*
D02*
G37*
G36*
X030451D02*
X030201D01*
Y03007D01*
X03022Y030025D01*
X030265Y030006D01*
X030451D01*
Y030231D01*
D02*
G37*
G36*
X022061Y025111D02*
X021786D01*
Y025D01*
X021805Y024955D01*
X02185Y024936D01*
X022061D01*
Y025111D01*
D02*
G37*
G36*
X032675Y024065D02*
X032469D01*
Y023796D01*
X032739D01*
Y024001D01*
X03272Y024047D01*
X032675Y024065D01*
D02*
G37*
G36*
X029061Y025111D02*
X028786D01*
Y025D01*
X028805Y024955D01*
X02885Y024936D01*
X029061D01*
Y025111D01*
D02*
G37*
G36*
X022514D02*
X022239D01*
Y024936D01*
X02245D01*
X022495Y024955D01*
X022514Y025D01*
Y025111D01*
D02*
G37*
G36*
X029061Y034964D02*
X02885D01*
X028805Y034945D01*
X028786Y0349D01*
Y034789D01*
X029061D01*
Y034964D01*
D02*
G37*
G36*
X03238Y035064D02*
X032287Y035051D01*
X032201Y035016D01*
X032127Y034959D01*
X03207Y034885D01*
X032035Y034799D01*
X032023Y034706D01*
X032035Y034614D01*
X03207Y034527D01*
X032127Y034453D01*
X032201Y034397D01*
X032287Y034361D01*
X03238Y034349D01*
X032473Y034361D01*
X032559Y034397D01*
X032633Y034453D01*
X03269Y034527D01*
X032725Y034614D01*
X032737Y034706D01*
X032725Y034799D01*
X03269Y034885D01*
X032633Y034959D01*
X032559Y035016D01*
X032473Y035051D01*
X03238Y035064D01*
D02*
G37*
G36*
X02245Y034964D02*
X022239D01*
Y034789D01*
X022514D01*
Y0349D01*
X022495Y034945D01*
X02245Y034964D01*
D02*
G37*
G36*
X022061D02*
X02185D01*
X021805Y034945D01*
X021786Y0349D01*
Y034789D01*
X022061D01*
Y034964D01*
D02*
G37*
G36*
X030815Y030634D02*
X030629D01*
Y030409D01*
X030879D01*
Y03057D01*
X03086Y030615D01*
X030815Y030634D01*
D02*
G37*
G36*
X030451D02*
X030265D01*
X03022Y030615D01*
X030201Y03057D01*
Y030409D01*
X030451D01*
Y030634D01*
D02*
G37*
G36*
X01838Y035064D02*
X018288Y035051D01*
X018201Y035016D01*
X018127Y034959D01*
X01807Y034885D01*
X018035Y034799D01*
X018023Y034706D01*
X018035Y034614D01*
X01807Y034527D01*
X018127Y034453D01*
X018201Y034397D01*
X018288Y034361D01*
X01838Y034349D01*
X018472Y034361D01*
X018559Y034397D01*
X018633Y034453D01*
X018676Y034509D01*
X020811D01*
Y03441D01*
X02083Y034365D01*
X020875Y034346D01*
X020939D01*
Y033914D01*
X020895D01*
X02085Y033895D01*
X020831Y03385D01*
Y03335D01*
X02085Y033305D01*
X020895Y033286D01*
X021445D01*
X02149Y033305D01*
X021509Y03335D01*
Y03385D01*
X02149Y033895D01*
X021445Y033914D01*
X021361D01*
Y034346D01*
X021425D01*
X02147Y034365D01*
X021489Y03441D01*
Y03491D01*
X02147Y034955D01*
X021425Y034974D01*
X020875D01*
X02083Y034955D01*
X02082Y034931D01*
X018654D01*
X018633Y034959D01*
X018559Y035016D01*
X018472Y035051D01*
X01838Y035064D01*
D02*
G37*
G36*
X03238Y032064D02*
X032287Y032051D01*
X032201Y032016D01*
X032127Y031959D01*
X03207Y031885D01*
X032067Y031878D01*
X031606D01*
X031541Y031865D01*
X031485Y031827D01*
X031089Y031431D01*
X031052Y031376D01*
X031039Y03131D01*
Y030121D01*
X030789Y029871D01*
X029514D01*
Y0299D01*
X029497Y02995D01*
X029514Y03D01*
Y030111D01*
X02915D01*
X028786D01*
Y03D01*
X028803Y02995D01*
X028786Y0299D01*
Y0295D01*
X028803Y02945D01*
X028786Y0294D01*
Y029D01*
X028803Y02895D01*
X028786Y0289D01*
Y028789D01*
X02915D01*
X029514D01*
Y0289D01*
X029497Y02895D01*
X029514Y029D01*
X029543Y029029D01*
X03085D01*
X030916Y029042D01*
X030971Y029079D01*
X031701Y029809D01*
X031738Y029864D01*
X031751Y02993D01*
Y030469D01*
X031817Y030535D01*
X032067D01*
X03207Y030527D01*
X032127Y030453D01*
X032201Y030397D01*
X032287Y030361D01*
X03238Y030349D01*
X032473Y030361D01*
X032559Y030397D01*
X032633Y030453D01*
X03269Y030527D01*
X032725Y030614D01*
X032737Y030706D01*
X032725Y030799D01*
X03269Y030885D01*
X032633Y030959D01*
X032559Y031016D01*
X032473Y031051D01*
X03238Y031064D01*
X032287Y031051D01*
X032201Y031016D01*
X032127Y030959D01*
X03207Y030885D01*
X032067Y030878D01*
X031746D01*
X031681Y030865D01*
X031625Y030827D01*
X031459Y030661D01*
X03144Y030634D01*
X031381Y030652D01*
Y031239D01*
X031677Y031535D01*
X032067D01*
X03207Y031527D01*
X032127Y031453D01*
X032201Y031397D01*
X032287Y031361D01*
X03238Y031349D01*
X032473Y031361D01*
X032559Y031397D01*
X032633Y031453D01*
X03269Y031527D01*
X032725Y031614D01*
X032737Y031706D01*
X032725Y031799D01*
X03269Y031885D01*
X032633Y031959D01*
X032559Y032016D01*
X032473Y032051D01*
X03238Y032064D01*
D02*
G37*
%LPD*%
D10*
X026937Y036739D02*
X026835Y036733D01*
X026734Y036713D01*
X026636Y036679D01*
X026544Y036634D01*
X026458Y036577D01*
X026381Y036509D01*
X026313Y036431D01*
X026255Y036346D01*
X02621Y036253D01*
X026177Y036156D01*
X026157Y036055D01*
X02615Y035952D01*
X0288Y036739D02*
X028902Y036746D01*
X029003Y036766D01*
X029101Y036799D01*
X029193Y036845D01*
X029279Y036902D01*
X029356Y03697D01*
X029424Y037047D01*
X029482Y037133D01*
X029527Y037225D01*
X02956Y037323D01*
X02958Y037424D01*
X029587Y037527D01*
X03054Y03122D02*
Y03191D01*
X01838Y034646D02*
X018454Y03472D01*
X028666Y020354D02*
X03045D01*
X02692Y0221D02*
X028666Y020354D01*
X02692Y0221D02*
Y02297D01*
X02157Y0221D02*
X02692D01*
X02131Y02236D02*
X02157Y0221D01*
X02131Y02236D02*
Y02297D01*
X02615Y0352D02*
Y035952D01*
X026937Y036739D02*
X0288D01*
X029587Y037527D02*
Y039889D01*
X02117Y0327D02*
X02215D01*
X02115Y03362D02*
Y03466D01*
Y03362D02*
X02117Y0336D01*
X02915Y0307D02*
X02916Y03069D01*
X02915Y0302D02*
X02984D01*
X02916Y03069D02*
X02964D01*
X03017Y03122D01*
X02984Y0302D02*
X02996Y03032D01*
X03017Y03122D02*
X03054D01*
X02996Y03032D02*
X03054D01*
Y03191D02*
X03055D01*
X02215Y0317D02*
X02279D01*
X02165Y02394D02*
X02262D01*
X02131Y0236D02*
X02165Y02394D01*
X02131Y02297D02*
Y0236D01*
X02262Y02394D02*
X02323Y02455D01*
Y03126D01*
X02279Y0317D02*
X02323Y03126D01*
X02692Y02297D02*
Y03013D01*
X02749Y0307D01*
X02915D01*
X018454Y03472D02*
X02109D01*
X02115Y03466D01*
Y03556D02*
X02185D01*
X02215Y03526D01*
Y0347D02*
Y03526D01*
D11*
X01945Y020344D02*
D03*
X01855D02*
D03*
X02143D02*
D03*
X02053D02*
D03*
X02144Y02144D02*
D03*
X02054D02*
D03*
X01946D02*
D03*
X01856D02*
D03*
X03134Y02143D02*
D03*
X03044D02*
D03*
X03135Y020354D02*
D03*
X03045D02*
D03*
D12*
X02959Y039866D02*
D03*
D13*
Y040654D02*
D03*
D14*
X029984Y04025D02*
D03*
X029196D02*
D03*
D15*
X02115Y03556D02*
D03*
Y03466D02*
D03*
X02117Y0327D02*
D03*
Y0336D02*
D03*
X03054Y03032D02*
D03*
Y03122D02*
D03*
D16*
X02215Y0252D02*
D03*
Y0257D02*
D03*
Y0262D02*
D03*
Y0267D02*
D03*
Y0272D02*
D03*
Y0277D02*
D03*
Y0282D02*
D03*
Y0287D02*
D03*
Y0292D02*
D03*
Y0297D02*
D03*
Y0302D02*
D03*
Y0307D02*
D03*
Y0312D02*
D03*
Y0317D02*
D03*
Y0322D02*
D03*
Y0327D02*
D03*
Y0332D02*
D03*
Y0337D02*
D03*
Y0342D02*
D03*
Y0347D02*
D03*
X02915D02*
D03*
Y0342D02*
D03*
Y0337D02*
D03*
Y0332D02*
D03*
Y0327D02*
D03*
Y0322D02*
D03*
Y0317D02*
D03*
Y0312D02*
D03*
Y0307D02*
D03*
Y0302D02*
D03*
Y0297D02*
D03*
Y0292D02*
D03*
Y0287D02*
D03*
Y0282D02*
D03*
Y0277D02*
D03*
Y0272D02*
D03*
Y0267D02*
D03*
Y0262D02*
D03*
Y0257D02*
D03*
Y0252D02*
D03*
D17*
X02415Y0352D02*
D03*
X02465D02*
D03*
X02515D02*
D03*
X02565D02*
D03*
X02615D02*
D03*
X02665D02*
D03*
X02715D02*
D03*
D18*
X03134Y020364D02*
X03135Y020354D01*
X03134Y020364D02*
Y02143D01*
X02834Y02355D02*
X02892Y02297D01*
X02834Y02355D02*
Y02747D01*
X02857Y0277D01*
X02915D01*
X02823Y0282D02*
X02915D01*
X02792Y02789D02*
X02823Y0282D01*
X02792Y02297D02*
Y02789D01*
X02143Y020344D02*
X02144Y020354D01*
Y02144D01*
X01945Y020344D02*
X01946Y020354D01*
Y02144D01*
X01769D02*
X01856D01*
X01736Y02177D02*
X01769Y02144D01*
X01736Y02177D02*
Y02538D01*
X017686Y025706D01*
X01838D01*
X02054Y02144D02*
Y02204D01*
X02044Y02214D02*
X02054Y02204D01*
X01809Y02214D02*
X02044D01*
X01771Y02252D02*
X01809Y02214D01*
X01771Y02252D02*
Y02453D01*
X017886Y024706D01*
X01838D01*
X02106Y0307D02*
X02215D01*
X02084Y0302D02*
X02215D01*
X02031Y0297D02*
X02215D01*
X01988Y0292D02*
X02215D01*
X01838Y027646D02*
X020064D01*
X02051Y0272D01*
X02215D01*
X01838Y026646D02*
X018434Y0267D01*
X02215D01*
X01838Y028646D02*
X018434Y0287D01*
X02215D01*
X01838Y029646D02*
X018444Y02971D01*
X01937D01*
X01988Y0292D01*
X01838Y030646D02*
X018444Y03071D01*
X0193D01*
X02031Y0297D01*
X01838Y031646D02*
X018444Y03171D01*
X01933D01*
X02084Y0302D01*
X01838Y032646D02*
X018444Y03271D01*
X01905D01*
X02106Y0307D01*
X01838Y033646D02*
X018444Y03371D01*
X01838Y025706D02*
X020076D01*
X02057Y0262D01*
X02215D01*
X01838Y024706D02*
X020116D01*
X02111Y0257D01*
X02215D01*
X030526Y033706D02*
X03238D01*
X031606Y031706D02*
X03238D01*
X029156Y026706D02*
X03238D01*
X02915Y0267D02*
X029156Y026706D01*
X02915Y0257D02*
X03042D01*
X031414Y024706D01*
X03238D01*
X02915Y0262D02*
X03092D01*
X031414Y025706D01*
X03238D01*
X02915Y0317D02*
X02956D01*
X02915Y0312D02*
X0296D01*
X03121Y03131D02*
X031606Y031706D01*
X03158Y03054D02*
X031746Y030706D01*
X03238D01*
X02956Y0317D02*
X02976Y0319D01*
Y03294D01*
X030526Y033706D01*
X0296Y0312D02*
X03009Y03169D01*
Y03242D01*
X030376Y032706D01*
X03238D01*
X02915Y0297D02*
X03086D01*
X03121Y03005D01*
Y03131D01*
X02915Y0292D02*
X03085D01*
X03158Y02993D01*
Y03054D01*
X02915Y0282D02*
X03042D01*
X031926Y029706D01*
X03238D01*
X02915Y0277D02*
X03076D01*
X031766Y028706D01*
X03238D01*
X02915Y0272D02*
X03098D01*
X031486Y027706D01*
X03238D01*
X02214Y02521D02*
X02215Y0252D01*
X01838Y023706D02*
X020026D01*
X02153Y02521D01*
X02214D01*
X02431Y02297D02*
Y0325D01*
X02311Y0337D02*
X02431Y0325D01*
X02215Y0337D02*
X02311D01*
X02331Y02297D02*
X02376Y02342D01*
Y03209D01*
X02215Y0332D02*
X02265D01*
X02376Y03209D01*
X018444Y03371D02*
X01887D01*
X02138Y0312D01*
X02215D01*
X02036Y03301D02*
X02086D01*
X02117Y0327D01*
D19*
X02031Y02297D02*
D03*
X02131D02*
D03*
X02231D02*
D03*
X02331D02*
D03*
X02431D02*
D03*
X03238Y024706D02*
D03*
Y025706D02*
D03*
Y026706D02*
D03*
Y027706D02*
D03*
Y028706D02*
D03*
Y029706D02*
D03*
Y030706D02*
D03*
Y031706D02*
D03*
Y032706D02*
D03*
Y033706D02*
D03*
Y034706D02*
D03*
X01838Y024706D02*
D03*
Y025706D02*
D03*
Y026706D02*
D03*
Y027706D02*
D03*
Y028706D02*
D03*
Y029706D02*
D03*
Y030706D02*
D03*
Y031706D02*
D03*
Y032706D02*
D03*
Y033706D02*
D03*
Y034706D02*
D03*
X02892Y02297D02*
D03*
X02792D02*
D03*
X02692D02*
D03*
D20*
X02531D02*
D03*
X02992D02*
D03*
D21*
X03238Y023706D02*
D03*
X01838D02*
D03*
D22*
X033071Y041732D02*
D03*
Y040945D02*
D03*
Y040157D02*
D03*
Y03937D02*
D03*
Y038583D02*
D03*
Y037795D02*
D03*
Y037008D02*
D03*
Y03622D02*
D03*
Y035433D02*
D03*
Y034646D02*
D03*
Y033858D02*
D03*
X032283Y041732D02*
D03*
Y040945D02*
D03*
Y040157D02*
D03*
Y03937D02*
D03*
Y038583D02*
D03*
Y037795D02*
D03*
Y037008D02*
D03*
Y03622D02*
D03*
Y035433D02*
D03*
X031496Y041732D02*
D03*
Y040945D02*
D03*
Y040157D02*
D03*
Y03937D02*
D03*
Y038583D02*
D03*
Y037795D02*
D03*
Y037008D02*
D03*
Y03622D02*
D03*
Y035433D02*
D03*
X030709Y041732D02*
D03*
Y040945D02*
D03*
Y040157D02*
D03*
Y03937D02*
D03*
Y038583D02*
D03*
Y037795D02*
D03*
Y037008D02*
D03*
Y03622D02*
D03*
Y035433D02*
D03*
X029921Y041732D02*
D03*
Y040945D02*
D03*
Y03937D02*
D03*
Y038583D02*
D03*
Y037795D02*
D03*
Y037008D02*
D03*
Y03622D02*
D03*
Y035433D02*
D03*
Y034646D02*
D03*
Y033858D02*
D03*
X029134Y041732D02*
D03*
Y040945D02*
D03*
Y03937D02*
D03*
Y038583D02*
D03*
Y037795D02*
D03*
Y03622D02*
D03*
Y035433D02*
D03*
X028346Y041732D02*
D03*
Y040945D02*
D03*
Y040157D02*
D03*
Y03937D02*
D03*
Y038583D02*
D03*
Y037795D02*
D03*
Y03622D02*
D03*
Y035433D02*
D03*
Y034646D02*
D03*
Y033858D02*
D03*
X027559Y041732D02*
D03*
Y040945D02*
D03*
Y040157D02*
D03*
Y03937D02*
D03*
Y038583D02*
D03*
Y037795D02*
D03*
Y03622D02*
D03*
Y035433D02*
D03*
Y034646D02*
D03*
Y033858D02*
D03*
X026772Y041732D02*
D03*
Y040945D02*
D03*
Y040157D02*
D03*
Y03937D02*
D03*
Y038583D02*
D03*
Y037795D02*
D03*
Y03622D02*
D03*
Y034646D02*
D03*
Y033858D02*
D03*
X025984Y041732D02*
D03*
Y040945D02*
D03*
Y040157D02*
D03*
Y03937D02*
D03*
Y038583D02*
D03*
Y037795D02*
D03*
Y037008D02*
D03*
Y034646D02*
D03*
Y033858D02*
D03*
X025197Y041732D02*
D03*
Y040945D02*
D03*
Y040157D02*
D03*
Y03937D02*
D03*
Y038583D02*
D03*
Y037795D02*
D03*
Y037008D02*
D03*
Y03622D02*
D03*
Y034646D02*
D03*
Y033858D02*
D03*
X024409Y041732D02*
D03*
Y040945D02*
D03*
Y040157D02*
D03*
Y03937D02*
D03*
Y038583D02*
D03*
Y037795D02*
D03*
Y037008D02*
D03*
Y03622D02*
D03*
Y034646D02*
D03*
Y033858D02*
D03*
X023622Y041732D02*
D03*
Y040945D02*
D03*
Y040157D02*
D03*
Y03937D02*
D03*
Y038583D02*
D03*
Y037795D02*
D03*
Y037008D02*
D03*
Y03622D02*
D03*
Y035433D02*
D03*
Y034646D02*
D03*
Y033858D02*
D03*
X022835Y041732D02*
D03*
Y040945D02*
D03*
Y040157D02*
D03*
Y03937D02*
D03*
Y038583D02*
D03*
Y037795D02*
D03*
Y037008D02*
D03*
Y03622D02*
D03*
Y035433D02*
D03*
Y034646D02*
D03*
X022047Y041732D02*
D03*
Y040945D02*
D03*
Y040157D02*
D03*
Y03937D02*
D03*
Y038583D02*
D03*
Y037795D02*
D03*
Y037008D02*
D03*
Y03622D02*
D03*
Y035433D02*
D03*
X02126Y041732D02*
D03*
Y040945D02*
D03*
Y040157D02*
D03*
Y03937D02*
D03*
Y038583D02*
D03*
Y037795D02*
D03*
Y037008D02*
D03*
Y03622D02*
D03*
X020472Y041732D02*
D03*
Y040945D02*
D03*
Y040157D02*
D03*
Y03937D02*
D03*
Y038583D02*
D03*
Y037795D02*
D03*
Y037008D02*
D03*
Y03622D02*
D03*
Y035433D02*
D03*
Y033858D02*
D03*
X019685Y041732D02*
D03*
Y040945D02*
D03*
Y040157D02*
D03*
Y03937D02*
D03*
Y038583D02*
D03*
Y037795D02*
D03*
Y037008D02*
D03*
Y03622D02*
D03*
Y035433D02*
D03*
Y033858D02*
D03*
X018898Y041732D02*
D03*
Y040945D02*
D03*
Y040157D02*
D03*
Y03937D02*
D03*
Y038583D02*
D03*
Y037795D02*
D03*
Y037008D02*
D03*
Y03622D02*
D03*
Y035433D02*
D03*
X01811Y041732D02*
D03*
Y040945D02*
D03*
Y040157D02*
D03*
Y03937D02*
D03*
Y038583D02*
D03*
Y037795D02*
D03*
Y037008D02*
D03*
Y03622D02*
D03*
Y035433D02*
D03*
X017323Y041732D02*
D03*
Y040945D02*
D03*
Y040157D02*
D03*
Y03937D02*
D03*
Y038583D02*
D03*
Y037795D02*
D03*
Y037008D02*
D03*
Y03622D02*
D03*
Y035433D02*
D03*
Y034646D02*
D03*
Y033858D02*
D03*
D23*
X03055Y03191D02*
D03*
X02036Y03301D02*
D03*
M02*
