G04 Layer_Color=8421504*
%FSTAX24Y24*%
%MOIN*%
G70*
G01*
G75*
%ADD11R,0.0500X0.0550*%
%ADD12R,0.0197X0.0256*%
%ADD13R,0.0197X0.0217*%
%ADD14R,0.0236X0.0591*%
%ADD15R,0.0550X0.0500*%
%ADD16R,0.0600X0.0400*%
%ADD17R,0.0400X0.0600*%
D11*
X01945Y020344D02*
D03*
X01855D02*
D03*
X02143D02*
D03*
X02053D02*
D03*
X02144Y02144D02*
D03*
X02054D02*
D03*
X01946D02*
D03*
X01856D02*
D03*
X03134Y02143D02*
D03*
X03044D02*
D03*
X03135Y020354D02*
D03*
X03045D02*
D03*
D12*
X02959Y039866D02*
D03*
D13*
Y040654D02*
D03*
D14*
X029984Y04025D02*
D03*
X029196D02*
D03*
D15*
X02115Y03556D02*
D03*
Y03466D02*
D03*
X02117Y0327D02*
D03*
Y0336D02*
D03*
X03054Y03032D02*
D03*
Y03122D02*
D03*
D16*
X02215Y0252D02*
D03*
Y0257D02*
D03*
Y0262D02*
D03*
Y0267D02*
D03*
Y0272D02*
D03*
Y0277D02*
D03*
Y0282D02*
D03*
Y0287D02*
D03*
Y0292D02*
D03*
Y0297D02*
D03*
Y0302D02*
D03*
Y0307D02*
D03*
Y0312D02*
D03*
Y0317D02*
D03*
Y0322D02*
D03*
Y0327D02*
D03*
Y0332D02*
D03*
Y0337D02*
D03*
Y0342D02*
D03*
Y0347D02*
D03*
X02915D02*
D03*
Y0342D02*
D03*
Y0337D02*
D03*
Y0332D02*
D03*
Y0327D02*
D03*
Y0322D02*
D03*
Y0317D02*
D03*
Y0312D02*
D03*
Y0307D02*
D03*
Y0302D02*
D03*
Y0297D02*
D03*
Y0292D02*
D03*
Y0287D02*
D03*
Y0282D02*
D03*
Y0277D02*
D03*
Y0272D02*
D03*
Y0267D02*
D03*
Y0262D02*
D03*
Y0257D02*
D03*
Y0252D02*
D03*
D17*
X02415Y0352D02*
D03*
X02465D02*
D03*
X02515D02*
D03*
X02565D02*
D03*
X02615D02*
D03*
X02665D02*
D03*
X02715D02*
D03*
M02*
